<?xml version="1.0" encoding="UTF-8" standalone="no"?>
<svg width="200px" height="200px" viewBox="0 0 200 200" version="1.1" xmlns="http://www.w3.org/2000/svg" xmlns:xlink="http://www.w3.org/1999/xlink">
    <!-- Generator: Sketch 41 (35326) - http://www.bohemiancoding.com/sketch -->
    <title>Group 4</title>
    <desc>Created with Sketch.</desc>
    <defs></defs>
    <g id="home" stroke="none" stroke-width="1" fill="none" fill-rule="evenodd">
        <g id="homepage" transform="translate(-1160.000000, -2802.000000)">
            <g id="Group-4" transform="translate(1160.000000, 2802.000000)">
                <path d="M99.9799129,199.67804 C155.197294,199.67804 199.959826,154.978588 199.959826,99.8390199 C199.959826,44.6994518 155.197294,0 99.9799129,0 C44.7625317,0 0,44.6994518 0,99.8390199 C0,154.978588 44.7625317,199.67804 99.9799129,199.67804 Z" id="Oval-4-Copy-2" fill="#CABC00"></path>
                <path d="M38.2079818,114.87234 C37.9475638,114.87234 37.728816,114.781196 37.5517318,114.598903 C37.3746476,114.41661 37.2861068,114.200467 37.2861068,113.950465 L37.2861068,113.49734 C37.2861068,113.236922 37.3746476,113.018175 37.5517318,112.84109 C37.728816,112.664006 37.9475638,112.575465 38.2079818,112.575465 L39.6923568,112.575465 C39.7756906,112.575465 39.8173568,112.533799 39.8173568,112.450465 L39.8173568,105.919215 C39.8173568,105.835882 39.7756906,105.794215 39.6923568,105.794215 L38.5048568,105.794215 C38.2548556,105.794215 38.0439202,105.708279 37.8720443,105.536403 C37.7001684,105.364527 37.6142318,105.1588 37.6142318,104.919215 C37.6142318,104.669214 37.6949602,104.445258 37.8564193,104.24734 C38.0178784,104.049423 38.2236056,103.919216 38.4736068,103.856715 C38.9423591,103.731715 39.3694382,103.580675 39.7548568,103.40359 C40.3902766,103.111922 40.9683959,102.96609 41.4892318,102.96609 L41.7392318,102.96609 C41.9892331,102.96609 42.2053767,103.057235 42.3876693,103.239528 C42.5699619,103.421821 42.6611068,103.637964 42.6611068,103.887965 L42.6611068,112.450465 C42.6611068,112.533799 42.6975648,112.575465 42.7704818,112.575465 L43.8798568,112.575465 C44.1402748,112.575465 44.3590226,112.664006 44.5361068,112.84109 C44.713191,113.018175 44.8017318,113.236922 44.8017318,113.49734 L44.8017318,113.950465 C44.8017318,114.200467 44.713191,114.41661 44.5361068,114.598903 C44.3590226,114.781196 44.1402748,114.87234 43.8798568,114.87234 L38.2079818,114.87234 Z M47.2548568,114.87234 C47.0361057,114.87234 46.8460034,114.791612 46.6845443,114.630153 C46.5230852,114.468694 46.4423568,114.278592 46.4423568,114.05984 C46.4423568,113.518171 46.6402715,113.059842 47.0361068,112.68484 C48.4840307,111.341084 49.5751656,110.187449 50.3095443,109.223903 C51.043923,108.260356 51.4111068,107.403594 51.4111068,106.65359 C51.4111068,106.111921 51.2730874,105.695259 50.9970443,105.40359 C50.7210013,105.111922 50.3434009,104.96609 49.8642318,104.96609 C49.4163129,104.96609 48.9684007,105.137964 48.5204818,105.481715 C48.3121474,105.648383 48.0829831,105.731715 47.8329818,105.731715 C47.5933973,105.731715 47.3798577,105.643175 47.1923568,105.46609 L46.9579818,105.231715 C46.7704809,105.054631 46.6767318,104.835883 46.6767318,104.575465 C46.6767318,104.325464 46.7704809,104.117133 46.9579818,103.950465 C47.4475676,103.533797 47.9501667,103.229112 48.4657943,103.036403 C48.9814219,102.843694 49.5777701,102.74734 50.2548568,102.74734 C51.4111126,102.74734 52.3512074,103.088483 53.0751693,103.770778 C53.7991313,104.453073 54.1611068,105.35671 54.1611068,106.481715 C54.1611068,108.14839 52.9892435,110.169204 50.6454818,112.544215 C50.6350651,112.565049 50.6350651,112.583278 50.6454818,112.598903 C50.6558985,112.614528 50.6715234,112.62234 50.6923568,112.62234 C51.4423606,112.518173 52.0465212,112.46609 52.5048568,112.46609 L53.7704818,112.46609 C54.0308998,112.46609 54.2496476,112.557235 54.4267318,112.739528 C54.603816,112.921821 54.6923568,113.137964 54.6923568,113.387965 L54.6923568,113.950465 C54.6923568,114.200467 54.603816,114.41661 54.4267318,114.598903 C54.2496476,114.781196 54.0308998,114.87234 53.7704818,114.87234 L47.2548568,114.87234 Z M58.3173568,109.24734 C57.827771,109.24734 57.4241292,109.078071 57.1064193,108.739528 C56.7887094,108.400985 56.6298568,107.981718 56.6298568,107.481715 C56.6298568,106.981713 56.7887094,106.562446 57.1064193,106.223903 C57.4241292,105.88536 57.827771,105.71609 58.3173568,105.71609 C58.8069426,105.71609 59.2131885,105.88536 59.5361068,106.223903 C59.8590251,106.562446 60.0204818,106.981713 60.0204818,107.481715 C60.0204818,107.981718 59.8590251,108.400985 59.5361068,108.739528 C59.2131885,109.078071 58.8069426,109.24734 58.3173568,109.24734 Z M58.3173568,115.09109 C57.827771,115.09109 57.4241292,114.921821 57.1064193,114.583278 C56.7887094,114.244735 56.6298568,113.825468 56.6298568,113.325465 C56.6298568,112.825463 56.7887094,112.406196 57.1064193,112.067653 C57.4241292,111.72911 57.827771,111.55984 58.3173568,111.55984 C58.8069426,111.55984 59.2131885,111.72911 59.5361068,112.067653 C59.8590251,112.406196 60.0204818,112.825463 60.0204818,113.325465 C60.0204818,113.825468 59.8590251,114.244735 59.5361068,114.583278 C59.2131885,114.921821 58.8069426,115.09109 58.3173568,115.09109 Z M69.0595443,113.473903 C68.2939155,114.552033 67.2678841,115.09109 65.9814193,115.09109 C64.6949545,115.09109 63.6715273,114.552033 62.9111068,113.473903 C62.1506863,112.395773 61.7704818,110.856725 61.7704818,108.856715 C61.7704818,106.856705 62.1480822,105.338491 62.9032943,104.302028 C63.6585064,103.265564 64.6819337,102.74734 65.9736068,102.74734 C67.2652799,102.74734 68.2939155,103.270773 69.0595443,104.317653 C69.8251731,105.364533 70.2079818,106.877539 70.2079818,108.856715 C70.2079818,110.856725 69.8251731,112.395773 69.0595443,113.473903 Z M65.3720443,112.708278 C65.5439202,112.82807 65.744439,112.887965 65.9736068,112.887965 C66.2027746,112.887965 66.4032934,112.82807 66.5751693,112.708278 C66.7470452,112.588486 66.9085019,112.385363 67.0595443,112.098903 C67.2105867,111.812443 67.3251689,111.398385 67.4032943,110.856715 C67.4814197,110.315046 67.5204818,109.648386 67.5204818,108.856715 C67.5204818,108.075462 67.4814197,107.416614 67.4032943,106.880153 C67.3251689,106.343692 67.2105867,105.94005 67.0595443,105.669215 C66.9085019,105.398381 66.7470452,105.208278 66.5751693,105.098903 C66.4032934,104.989527 66.2027746,104.93484 65.9736068,104.93484 C65.744439,104.93484 65.5465243,104.989527 65.3798568,105.098903 C65.2131893,105.208278 65.0569409,105.398381 64.9111068,105.669215 C64.7652727,105.94005 64.6532947,106.343692 64.5751693,106.880153 C64.4970439,107.416614 64.4579818,108.075462 64.4579818,108.856715 C64.4579818,109.648386 64.4970439,110.315046 64.5751693,110.856715 C64.6532947,111.398385 64.7626686,111.812443 64.9032943,112.098903 C65.04392,112.385363 65.2001684,112.588486 65.3720443,112.708278 Z M78.7939193,113.473903 C78.0282905,114.552033 77.0022591,115.09109 75.7157943,115.09109 C74.4293295,115.09109 73.4059023,114.552033 72.6454818,113.473903 C71.8850613,112.395773 71.5048568,110.856725 71.5048568,108.856715 C71.5048568,106.856705 71.8824572,105.338491 72.6376693,104.302028 C73.3928814,103.265564 74.4163087,102.74734 75.7079818,102.74734 C76.9996549,102.74734 78.0282905,103.270773 78.7939193,104.317653 C79.5595481,105.364533 79.9423568,106.877539 79.9423568,108.856715 C79.9423568,110.856725 79.5595481,112.395773 78.7939193,113.473903 Z M75.1064193,112.708278 C75.2782952,112.82807 75.478814,112.887965 75.7079818,112.887965 C75.9371496,112.887965 76.1376684,112.82807 76.3095443,112.708278 C76.4814202,112.588486 76.6428769,112.385363 76.7939193,112.098903 C76.9449617,111.812443 77.0595439,111.398385 77.1376693,110.856715 C77.2157947,110.315046 77.2548568,109.648386 77.2548568,108.856715 C77.2548568,108.075462 77.2157947,107.416614 77.1376693,106.880153 C77.0595439,106.343692 76.9449617,105.94005 76.7939193,105.669215 C76.6428769,105.398381 76.4814202,105.208278 76.3095443,105.098903 C76.1376684,104.989527 75.9371496,104.93484 75.7079818,104.93484 C75.478814,104.93484 75.2808993,104.989527 75.1142318,105.098903 C74.9475643,105.208278 74.7913159,105.398381 74.6454818,105.669215 C74.4996477,105.94005 74.3876697,106.343692 74.3095443,106.880153 C74.2314189,107.416614 74.1923568,108.075462 74.1923568,108.856715 C74.1923568,109.648386 74.2314189,110.315046 74.3095443,110.856715 C74.3876697,111.398385 74.4970436,111.812443 74.6376693,112.098903 C74.778295,112.385363 74.9345434,112.588486 75.1064193,112.708278 Z M87.8798568,111.37234 C87.8798568,111.455674 87.9215231,111.49734 88.0048568,111.49734 L89.9736068,111.49734 C90.0569406,111.49734 90.0986068,111.455674 90.0986068,111.37234 L90.0986068,110.887965 C90.0986068,110.815048 90.0569406,110.77859 89.9736068,110.77859 L88.0048568,110.77859 C87.9215231,110.77859 87.8798568,110.815048 87.8798568,110.887965 L87.8798568,111.37234 Z M90.0986068,108.544215 C90.0986068,108.460882 90.0569406,108.419215 89.9736068,108.419215 L88.0048568,108.419215 C87.9215231,108.419215 87.8798568,108.460882 87.8798568,108.544215 L87.8798568,108.981715 C87.8798568,109.054632 87.9215231,109.09109 88.0048568,109.09109 L89.9736068,109.09109 C90.0569406,109.09109 90.0986068,109.054632 90.0986068,108.981715 L90.0986068,108.544215 Z M91.4111068,106.481715 C91.6715248,106.481715 91.8902726,106.57286 92.0673568,106.755153 C92.244441,106.937446 92.3329818,107.153589 92.3329818,107.40359 L92.3329818,114.21609 C92.3329818,114.695259 92.2782949,115.07286 92.1689193,115.348903 C92.0595438,115.624946 91.8590249,115.84109 91.5673568,115.99734 C91.2340218,116.184841 90.7861096,116.299424 90.2236068,116.34109 L90.1454818,116.34109 C89.9058973,116.34109 89.6923577,116.268174 89.5048568,116.12234 C89.2861057,115.955673 89.1298573,115.742133 89.0361068,115.481715 C89.0152734,115.398382 88.989232,115.320257 88.9579818,115.24734 C88.9267316,115.174423 88.9111068,115.101507 88.9111068,115.02859 C88.9111068,114.914007 88.9475648,114.804633 89.0204818,114.700465 C89.1350657,114.523381 89.2965224,114.43484 89.5048568,114.43484 C89.6611076,114.43484 89.7704815,114.429632 89.8329818,114.419215 C89.937149,114.419215 90.0074608,114.400986 90.0439193,114.364528 C90.0803778,114.328069 90.0986068,114.268174 90.0986068,114.18484 L90.0986068,113.294215 C90.0986068,113.210882 90.0569406,113.169215 89.9736068,113.169215 L88.0048568,113.169215 C87.9215231,113.169215 87.8798568,113.210882 87.8798568,113.294215 L87.8798568,115.37234 C87.8798568,115.632758 87.791316,115.851506 87.6142318,116.02859 C87.4371476,116.205675 87.2183998,116.294215 86.9579818,116.294215 L86.6142318,116.294215 C86.3642306,116.294215 86.1480869,116.205675 85.9657943,116.02859 C85.7835017,115.851506 85.6923568,115.632758 85.6923568,115.37234 L85.6923568,107.40359 C85.6923568,107.153589 85.7835017,106.937446 85.9657943,106.755153 C86.1480869,106.57286 86.3642306,106.481715 86.6142318,106.481715 L91.4111068,106.481715 Z M96.5517318,113.919215 L96.5517318,107.169215 C96.5517318,106.919214 96.6428767,106.703071 96.8251693,106.520778 C97.0074619,106.338485 97.2236056,106.24734 97.4736068,106.24734 L97.9267318,106.24734 C98.1767331,106.24734 98.3928767,106.338485 98.5751693,106.520778 C98.7574619,106.703071 98.8486068,106.919214 98.8486068,107.169215 L98.8486068,113.950465 C98.8486068,114.502552 98.7835033,114.929631 98.6532943,115.231715 C98.5230853,115.5338 98.2913168,115.773381 97.9579818,115.950465 C97.5204796,116.169217 96.9215273,116.299424 96.1611068,116.34109 L96.0986068,116.34109 C95.8590223,116.34109 95.6402745,116.262966 95.4423568,116.106715 C95.2340224,115.940048 95.0829823,115.7213 94.9892318,115.450465 C94.9371482,115.294215 94.8746488,115.137966 94.8017318,114.981715 C94.7704816,114.908798 94.7548568,114.835882 94.7548568,114.762965 C94.7548568,114.648382 94.7913148,114.539008 94.8642318,114.43484 C94.968399,114.268173 95.1194391,114.18484 95.3173568,114.18484 L95.3329818,114.18484 C95.4996493,114.195257 95.6454812,114.200465 95.7704818,114.200465 C95.9579827,114.200465 96.1090229,114.195257 96.2236068,114.18484 C96.3486074,114.18484 96.4345441,114.166611 96.4814193,114.130153 C96.5282945,114.093694 96.5517318,114.023383 96.5517318,113.919215 Z M94.5829818,106.669215 C94.8329831,106.669215 95.0491267,106.757756 95.2314193,106.93484 C95.4137119,107.111925 95.5048568,107.330672 95.5048568,107.59109 L95.5048568,112.30984 C95.5048568,112.559842 95.4137119,112.775985 95.2314193,112.958278 C95.0491267,113.140571 94.8329831,113.231715 94.5829818,113.231715 L94.3017318,113.231715 C94.0413138,113.231715 93.822566,113.140571 93.6454818,112.958278 C93.4683976,112.775985 93.3798568,112.559842 93.3798568,112.30984 L93.3798568,107.59109 C93.3798568,107.330672 93.4683976,107.111925 93.6454818,106.93484 C93.822566,106.757756 94.0413138,106.669215 94.3017318,106.669215 L94.5829818,106.669215 Z M96.6923568,103.387965 C96.6819401,103.408799 96.6819401,103.429632 96.6923568,103.450465 C96.7027735,103.471299 96.7183984,103.481715 96.7392318,103.481715 L98.6767318,103.481715 C98.9267331,103.481715 99.1428767,103.570256 99.3251693,103.74734 C99.5074619,103.924425 99.5986068,104.143172 99.5986068,104.40359 L99.5986068,104.65359 C99.5986068,104.903592 99.5074619,105.119735 99.3251693,105.302028 C99.1428767,105.484321 98.9267331,105.575465 98.6767318,105.575465 L85.8173568,105.575465 C85.5673556,105.575465 85.3512119,105.484321 85.1689193,105.302028 C84.9866267,105.119735 84.8954818,104.903592 84.8954818,104.65359 L84.8954818,104.40359 C84.8954818,104.143172 84.9866267,103.924425 85.1689193,103.74734 C85.3512119,103.570256 85.5673556,103.481715 85.8173568,103.481715 L87.8798568,103.481715 C87.911107,103.481715 87.9319401,103.471299 87.9423568,103.450465 C87.9527735,103.429632 87.9527735,103.403591 87.9423568,103.37234 C87.8277729,103.153589 87.681941,102.919217 87.5048568,102.669215 C87.4215231,102.544215 87.3798568,102.414008 87.3798568,102.27859 C87.3798568,102.21609 87.3902734,102.148382 87.4111068,102.075465 C87.4736071,101.856714 87.6090224,101.710882 87.8173568,101.637965 L88.3017318,101.481715 C88.4475659,101.429632 88.598606,101.40359 88.7548568,101.40359 C88.8694407,101.40359 88.9840229,101.414007 89.0986068,101.43484 C89.3798582,101.507757 89.6038143,101.653589 89.7704818,101.87234 C89.9371493,102.070258 90.0829812,102.262964 90.2079818,102.450465 C90.2808988,102.565049 90.3173568,102.679632 90.3173568,102.794215 C90.3173568,102.877549 90.2965237,102.955673 90.2548568,103.02859 C90.1819398,103.236925 90.0413162,103.377548 89.8329818,103.450465 C89.8225651,103.450465 89.8173568,103.455674 89.8173568,103.46609 C89.8173568,103.476507 89.8225651,103.481715 89.8329818,103.481715 L93.8329818,103.481715 C93.9163156,103.481715 93.9788149,103.450466 94.0204818,103.387965 C94.3017332,102.940047 94.556939,102.481718 94.7861068,102.012965 C94.9006907,101.773381 95.0777723,101.596299 95.3173568,101.481715 C95.4527741,101.408798 95.598606,101.37234 95.7548568,101.37234 C95.8486073,101.37234 95.9423563,101.387965 96.0361068,101.419215 L96.8173568,101.637965 C97.0361079,101.700466 97.1871481,101.841089 97.2704818,102.05984 C97.301732,102.143174 97.3173568,102.226507 97.3173568,102.30984 C97.3173568,102.434841 97.2756906,102.554632 97.1923568,102.669215 C97.0256893,102.919217 96.8590243,103.158798 96.6923568,103.387965 Z M103.770482,104.84109 C103.687148,104.84109 103.645482,104.877548 103.645482,104.950465 L103.645482,105.77859 C103.645482,106.028592 103.556941,106.244735 103.379857,106.427028 C103.202773,106.609321 102.984025,106.700465 102.723607,106.700465 L102.207982,106.700465 C101.947564,106.700465 101.728816,106.609321 101.551732,106.427028 C101.374648,106.244735 101.286107,106.028592 101.286107,105.77859 L101.286107,103.575465 C101.286107,103.315047 101.374648,103.0963 101.551732,102.919215 C101.728816,102.742131 101.947564,102.65359 102.207982,102.65359 L106.832982,102.65359 C106.905899,102.65359 106.942357,102.611924 106.942357,102.52859 L106.942357,102.137965 C106.942357,101.877547 107.033502,101.6588 107.215794,101.481715 C107.398087,101.304631 107.614231,101.21609 107.864232,101.21609 L108.520482,101.21609 C108.770483,101.21609 108.986627,101.304631 109.168919,101.481715 C109.351212,101.6588 109.442357,101.877547 109.442357,102.137965 L109.442357,102.52859 C109.442357,102.611924 109.478815,102.65359 109.551732,102.65359 L114.254857,102.65359 C114.515275,102.65359 114.734023,102.742131 114.911107,102.919215 C115.088191,103.0963 115.176732,103.315047 115.176732,103.575465 L115.176732,105.77859 C115.176732,106.028592 115.088191,106.244735 114.911107,106.427028 C114.734023,106.609321 114.515275,106.700465 114.254857,106.700465 L113.614232,106.700465 C113.353814,106.700465 113.135066,106.609321 112.957982,106.427028 C112.780898,106.244735 112.692357,106.028592 112.692357,105.77859 L112.692357,104.950465 C112.692357,104.877548 112.650691,104.84109 112.567357,104.84109 L103.770482,104.84109 Z M112.223607,106.84109 C112.223607,107.101508 112.132462,107.320256 111.950169,107.49734 C111.767877,107.674425 111.551733,107.762965 111.301732,107.762965 L105.067357,107.762965 C104.806939,107.762965 104.588191,107.674425 104.411107,107.49734 C104.234023,107.320256 104.145482,107.101508 104.145482,106.84109 L104.145482,106.59109 C104.145482,106.341089 104.234023,106.124946 104.411107,105.942653 C104.588191,105.76036 104.806939,105.669215 105.067357,105.669215 L111.301732,105.669215 C111.551733,105.669215 111.767877,105.76036 111.950169,105.942653 C112.132462,106.124946 112.223607,106.341089 112.223607,106.59109 L112.223607,106.84109 Z M111.832982,114.09109 L113.067357,114.09109 C113.254858,114.09109 113.387669,114.031195 113.465794,113.911403 C113.54392,113.791611 113.603815,113.544217 113.645482,113.169215 C113.666315,112.960881 113.765273,112.809841 113.942357,112.71609 C114.046524,112.65359 114.145481,112.62234 114.239232,112.62234 C114.332982,112.62234 114.421523,112.643174 114.504857,112.68484 C114.629857,112.736924 114.760064,112.789007 114.895482,112.84109 C115.1559,112.934841 115.359023,113.096298 115.504857,113.325465 C115.609024,113.492133 115.661107,113.669214 115.661107,113.856715 C115.661107,113.919216 115.655899,113.981715 115.645482,114.044215 C115.499648,114.856719 115.252254,115.41661 114.903294,115.723903 C114.554334,116.031196 114.020485,116.18484 113.301732,116.18484 L111.473607,116.18484 C110.452768,116.18484 109.767879,115.994738 109.418919,115.614528 C109.069959,115.234318 108.895482,114.533804 108.895482,113.512965 L108.895482,110.825465 C108.895482,110.752548 108.853816,110.71609 108.770482,110.71609 L107.332982,110.71609 C107.249648,110.71609 107.207982,110.752548 107.207982,110.825465 C107.145481,111.356718 107.062149,111.822859 106.957982,112.223903 C106.853815,112.624947 106.697566,113.031193 106.489232,113.442653 C106.280897,113.854113 106.020483,114.216089 105.707982,114.52859 C105.39548,114.841092 104.991838,115.140568 104.497044,115.427028 C104.00225,115.713488 103.421527,115.966089 102.754857,116.18484 C102.65069,116.216091 102.551732,116.231715 102.457982,116.231715 C102.312148,116.231715 102.171524,116.200466 102.036107,116.137965 C101.796522,116.023382 101.609024,115.8463 101.473607,115.606715 C101.359023,115.419214 101.239232,115.236925 101.114232,115.05984 C101.030898,114.945257 100.989232,114.830674 100.989232,114.71609 C100.989232,114.643173 101.004857,114.575466 101.036107,114.512965 C101.098607,114.315048 101.228814,114.190049 101.426732,114.137965 C102.051735,113.960881 102.569959,113.762967 102.981419,113.544215 C103.39288,113.325464 103.710585,113.067654 103.934544,112.770778 C104.158504,112.473901 104.31996,112.182238 104.418919,111.895778 C104.517878,111.609318 104.598606,111.252551 104.661107,110.825465 C104.671524,110.752548 104.635066,110.71609 104.551732,110.71609 L101.957982,110.71609 C101.707981,110.71609 101.491837,110.624946 101.309544,110.442653 C101.127252,110.26036 101.036107,110.044217 101.036107,109.794215 L101.036107,109.450465 C101.036107,109.200464 101.127252,108.984321 101.309544,108.802028 C101.491837,108.619735 101.707981,108.52859 101.957982,108.52859 L114.536107,108.52859 C114.786108,108.52859 115.002252,108.619735 115.184544,108.802028 C115.366837,108.984321 115.457982,109.200464 115.457982,109.450465 L115.457982,109.794215 C115.457982,110.044217 115.366837,110.26036 115.184544,110.442653 C115.002252,110.624946 114.786108,110.71609 114.536107,110.71609 L111.364232,110.71609 C111.291315,110.71609 111.254857,110.752548 111.254857,110.825465 L111.254857,113.481715 C111.254857,113.75255 111.288711,113.921819 111.356419,113.989528 C111.424128,114.057237 111.582981,114.09109 111.832982,114.09109 Z M121.864232,109.450465 C121.864232,109.377548 121.827774,109.34109 121.754857,109.34109 L120.332982,109.34109 C120.260065,109.34109 120.223607,109.377548 120.223607,109.450465 C120.18194,110.273386 120.119441,111.059837 120.036107,111.80984 C120.02569,111.893174 120.05694,111.93484 120.129857,111.93484 C120.515275,111.976507 120.859022,111.99734 121.161107,111.99734 C121.369441,111.99734 121.530898,111.924424 121.645482,111.77859 C121.760066,111.601506 121.832982,110.825472 121.864232,109.450465 Z M128.270482,107.18484 C128.353816,106.945256 128.504856,106.757758 128.723607,106.62234 C128.879858,106.539007 129.041314,106.49734 129.207982,106.49734 C129.280899,106.49734 129.359023,106.507757 129.442357,106.52859 L130.004857,106.65359 C130.244441,106.716091 130.421523,106.856714 130.536107,107.075465 C130.609024,107.200466 130.645482,107.330673 130.645482,107.46609 C130.645482,107.559841 130.629857,107.65359 130.598607,107.74734 C129.973604,109.466099 129.176737,111.00775 128.207982,112.37234 C128.166315,112.434841 128.161107,112.502548 128.192357,112.575465 C128.546525,113.471303 128.911105,113.919215 129.286107,113.919215 C129.546525,113.919215 129.723606,113.304638 129.817357,112.075465 C129.827774,111.898381 129.921523,111.773382 130.098607,111.700465 C130.161107,111.679632 130.223606,111.669215 130.286107,111.669215 C130.390274,111.669215 130.484023,111.700465 130.567357,111.762965 C130.713191,111.867133 130.864231,111.971298 131.020482,112.075465 C131.260066,112.221299 131.447564,112.414006 131.582982,112.65359 C131.676732,112.830675 131.723607,113.018173 131.723607,113.21609 C131.723607,113.278591 131.718399,113.34109 131.707982,113.40359 C131.582981,114.174428 131.4059,114.770776 131.176732,115.192653 C130.947564,115.61453 130.671525,115.900986 130.348607,116.052028 C130.025689,116.20307 129.603818,116.27859 129.082982,116.27859 C128.10381,116.27859 127.25486,115.700471 126.536107,114.544215 C126.49444,114.471298 126.447565,114.46609 126.395482,114.52859 C125.926729,114.986926 125.416318,115.419213 124.864232,115.825465 C124.707981,115.940049 124.536108,115.99734 124.348607,115.99734 C124.286106,115.99734 124.228815,115.992132 124.176732,115.981715 C123.926731,115.940049 123.718399,115.820258 123.551732,115.62234 C123.395481,115.434839 123.239233,115.25255 123.082982,115.075465 C122.947564,114.940048 122.879857,114.778591 122.879857,114.59109 C122.879857,114.55984 122.885065,114.523382 122.895482,114.481715 C122.916315,114.252548 123.025689,114.075466 123.223607,113.950465 C124.025694,113.429629 124.749645,112.809844 125.395482,112.09109 C125.447565,112.039007 125.46319,111.976507 125.442357,111.90359 C124.963188,110.288999 124.619441,108.262978 124.411107,105.825465 C124.40069,105.742132 124.359024,105.700465 124.286107,105.700465 L120.364232,105.700465 C120.280898,105.700465 120.239232,105.742132 120.239232,105.825465 L120.239232,107.106715 C120.239232,107.190049 120.280898,107.231715 120.364232,107.231715 L123.239232,107.231715 C123.489233,107.231715 123.702773,107.320256 123.879857,107.49734 C124.056941,107.674425 124.145482,107.882756 124.145482,108.12234 C124.145482,109.549431 124.098607,110.778585 124.004857,111.80984 C123.93194,112.549427 123.806941,113.044214 123.629857,113.294215 C123.348605,113.669217 122.947568,113.908798 122.426732,114.012965 C122.207981,114.054632 121.9059,114.080674 121.520482,114.09109 L121.473607,114.09109 C121.234022,114.09109 121.020483,114.007758 120.832982,113.84109 C120.645481,113.674423 120.515274,113.460883 120.442357,113.200465 C120.348606,112.783797 120.218399,112.414009 120.051732,112.09109 C120.041315,112.080674 120.028294,112.075465 120.012669,112.075465 C119.997044,112.075465 119.989232,112.085882 119.989232,112.106715 C119.780897,113.596306 119.437151,114.835877 118.957982,115.825465 C118.864231,116.0338 118.697566,116.15359 118.457982,116.18484 L118.348607,116.18484 C118.161106,116.18484 117.994441,116.122341 117.848607,115.99734 C117.661106,115.84109 117.473608,115.690049 117.286107,115.544215 C117.088189,115.387965 116.957982,115.184842 116.895482,114.93484 C116.874648,114.84109 116.864232,114.747341 116.864232,114.65359 C116.864232,114.507756 116.895481,114.361924 116.957982,114.21609 C117.301734,113.403586 117.52569,112.502554 117.629857,111.512965 C117.734024,110.523377 117.786107,109.42443 117.786107,108.21609 L117.786107,104.34109 C117.786107,104.080672 117.877252,103.861925 118.059544,103.68484 C118.241837,103.507756 118.457981,103.419215 118.707982,103.419215 L124.145482,103.419215 C124.218399,103.419215 124.254857,103.377549 124.254857,103.294215 C124.223607,102.731713 124.207982,102.335883 124.207982,102.106715 C124.207982,101.867131 124.296523,101.6588 124.473607,101.481715 C124.650691,101.304631 124.869439,101.21609 125.129857,101.21609 L125.739232,101.21609 C125.989233,101.21609 126.202773,101.304631 126.379857,101.481715 C126.556941,101.6588 126.645482,101.877547 126.645482,102.137965 C126.645482,102.544217 126.65069,102.92963 126.661107,103.294215 C126.671524,103.377549 126.71319,103.419215 126.786107,103.419215 L128.364232,103.419215 C128.385065,103.419215 128.398086,103.408799 128.403294,103.387965 C128.408503,103.367132 128.40069,103.351507 128.379857,103.34109 C128.161106,103.174423 127.916316,102.997341 127.645482,102.80984 C127.457981,102.68484 127.348607,102.50255 127.317357,102.262965 L127.317357,102.169215 C127.317357,101.981714 127.390273,101.815049 127.536107,101.669215 L127.629857,101.575465 C127.827774,101.377548 128.062147,101.257757 128.332982,101.21609 L128.504857,101.21609 C128.702774,101.21609 128.895481,101.268173 129.082982,101.37234 C129.447567,101.591092 129.775689,101.804631 130.067357,102.012965 C130.286108,102.169216 130.395482,102.382756 130.395482,102.65359 C130.395482,102.882758 130.312149,103.080673 130.145482,103.24734 L130.067357,103.325465 C130.046523,103.346299 130.041315,103.367132 130.051732,103.387965 C130.062149,103.408799 130.077773,103.419215 130.098607,103.419215 L130.754857,103.419215 C131.015275,103.419215 131.234023,103.507756 131.411107,103.68484 C131.588191,103.861925 131.676732,104.080672 131.676732,104.34109 L131.676732,104.77859 C131.676732,105.039008 131.588191,105.257756 131.411107,105.43484 C131.234023,105.611925 131.015275,105.700465 130.754857,105.700465 L126.911107,105.700465 C126.83819,105.700465 126.801732,105.742132 126.801732,105.825465 C126.916316,107.065055 127.077772,108.216085 127.286107,109.27859 C127.296524,109.289007 127.309544,109.29682 127.325169,109.302028 C127.340794,109.307236 127.353815,109.299424 127.364232,109.27859 C127.707984,108.61192 128.010064,107.914011 128.270482,107.18484 Z M137.864232,101.65359 C138.103816,101.65359 138.309543,101.739527 138.481419,101.911403 C138.653295,102.083279 138.739232,102.286402 138.739232,102.520778 C138.739232,102.755154 138.653295,102.958277 138.481419,103.130153 C138.309543,103.302029 138.103816,103.387965 137.864232,103.387965 L134.395482,103.387965 C134.155897,103.387965 133.952774,103.302029 133.786107,103.130153 C133.619439,102.958277 133.536107,102.755154 133.536107,102.520778 C133.536107,102.286402 133.619439,102.083279 133.786107,101.911403 C133.952774,101.739527 134.155897,101.65359 134.395482,101.65359 L137.864232,101.65359 Z M136.629857,112.52859 C136.629857,112.445257 136.588191,112.40359 136.504857,112.40359 L135.489232,112.40359 C135.416315,112.40359 135.379857,112.445257 135.379857,112.52859 L135.379857,113.65359 C135.379857,113.726507 135.416315,113.762965 135.489232,113.762965 L136.504857,113.762965 C136.588191,113.762965 136.629857,113.726507 136.629857,113.65359 L136.629857,112.52859 Z M137.739232,110.606715 C137.989233,110.606715 138.205377,110.695256 138.387669,110.87234 C138.569962,111.049425 138.661107,111.268172 138.661107,111.52859 L138.661107,114.65359 C138.661107,114.903592 138.569962,115.119735 138.387669,115.302028 C138.205377,115.484321 137.989233,115.575465 137.739232,115.575465 L135.442357,115.575465 C135.40069,115.575465 135.379857,115.596299 135.379857,115.637965 C135.379857,115.783799 135.330378,115.906194 135.231419,116.005153 C135.13246,116.104112 135.010066,116.15359 134.864232,116.15359 L134.301732,116.15359 C134.041314,116.15359 133.822566,116.062446 133.645482,115.880153 C133.468398,115.69786 133.379857,115.481717 133.379857,115.231715 L133.379857,111.52859 C133.379857,111.268172 133.468398,111.049425 133.645482,110.87234 C133.822566,110.695256 134.041314,110.606715 134.301732,110.606715 L137.739232,110.606715 Z M134.301732,110.075465 C134.062147,110.075465 133.859024,109.989529 133.692357,109.817653 C133.525689,109.645777 133.442357,109.442654 133.442357,109.208278 C133.442357,108.973902 133.525689,108.770779 133.692357,108.598903 C133.859024,108.427027 134.062147,108.34109 134.301732,108.34109 L137.832982,108.34109 C138.072566,108.34109 138.278293,108.427027 138.450169,108.598903 C138.622045,108.770779 138.707982,108.973902 138.707982,109.208278 C138.707982,109.442654 138.622045,109.645777 138.450169,109.817653 C138.278293,109.989529 138.072566,110.075465 137.832982,110.075465 L134.301732,110.075465 Z M134.301732,107.856715 C134.062147,107.856715 133.859024,107.773383 133.692357,107.606715 C133.525689,107.440048 133.442357,107.236925 133.442357,106.99734 C133.442357,106.757756 133.525689,106.554633 133.692357,106.387965 C133.859024,106.221298 134.062147,106.137965 134.301732,106.137965 L137.832982,106.137965 C138.072566,106.137965 138.278293,106.221298 138.450169,106.387965 C138.622045,106.554633 138.707982,106.757756 138.707982,106.99734 C138.707982,107.236925 138.622045,107.440048 138.450169,107.606715 C138.278293,107.773383 138.072566,107.856715 137.832982,107.856715 L134.301732,107.856715 Z M133.536107,105.65359 C133.286106,105.65359 133.07517,105.56505 132.903294,105.387965 C132.731418,105.210881 132.645482,104.997342 132.645482,104.74734 C132.645482,104.497339 132.731418,104.2838 132.903294,104.106715 C133.07517,103.929631 133.286106,103.84109 133.536107,103.84109 L138.442357,103.84109 C138.692358,103.84109 138.905898,103.929631 139.082982,104.106715 C139.260066,104.2838 139.348607,104.497339 139.348607,104.74734 C139.348607,104.997342 139.260066,105.210881 139.082982,105.387965 C138.905898,105.56505 138.692358,105.65359 138.442357,105.65359 L133.536107,105.65359 Z M146.926732,102.37234 C147.18715,102.37234 147.405898,102.463485 147.582982,102.645778 C147.760066,102.828071 147.848607,103.044214 147.848607,103.294215 L147.848607,103.68484 C147.848607,103.934842 147.760066,104.150985 147.582982,104.333278 C147.405898,104.515571 147.18715,104.606715 146.926732,104.606715 L145.364232,104.606715 C145.291315,104.606715 145.254857,104.643173 145.254857,104.71609 L145.254857,113.71609 C145.254857,114.361927 145.181941,114.851505 145.036107,115.18484 C144.890273,115.518175 144.629859,115.778589 144.254857,115.96609 C143.744438,116.205675 142.957987,116.34109 141.895482,116.37234 L141.864232,116.37234 C141.614231,116.37234 141.390274,116.289008 141.192357,116.12234 C140.994439,115.955673 140.853816,115.742133 140.770482,115.481715 C140.707981,115.273381 140.640274,115.06505 140.567357,114.856715 C140.536107,114.783798 140.520482,114.710882 140.520482,114.637965 C140.520482,114.523382 140.55694,114.408799 140.629857,114.294215 C140.744441,114.127548 140.905897,114.044215 141.114232,114.044215 L141.129857,114.044215 C141.525692,114.054632 141.968396,114.05984 142.457982,114.05984 C142.614233,114.05984 142.723606,114.031195 142.786107,113.973903 C142.848607,113.916611 142.879857,113.820258 142.879857,113.68484 L142.879857,104.71609 C142.879857,104.643173 142.838191,104.606715 142.754857,104.606715 L140.551732,104.606715 C140.301731,104.606715 140.085587,104.515571 139.903294,104.333278 C139.721002,104.150985 139.629857,103.934842 139.629857,103.68484 L139.629857,103.294215 C139.629857,103.044214 139.721002,102.828071 139.903294,102.645778 C140.085587,102.463485 140.301731,102.37234 140.551732,102.37234 L146.926732,102.37234 Z M160.411107,103.74734 C160.484024,103.74734 160.520482,103.710882 160.520482,103.637965 L160.520482,103.27859 C160.520482,103.195257 160.484024,103.15359 160.411107,103.15359 L158.801732,103.15359 C158.728815,103.15359 158.692357,103.195257 158.692357,103.27859 L158.692357,103.637965 C158.692357,103.710882 158.728815,103.74734 158.801732,103.74734 L160.411107,103.74734 Z M161.786107,101.80984 C162.036108,101.80984 162.252252,101.900985 162.434544,102.083278 C162.616837,102.265571 162.707982,102.481714 162.707982,102.731715 L162.707982,104.169215 C162.707982,104.429633 162.616837,104.648381 162.434544,104.825465 C162.252252,105.00255 162.036108,105.09109 161.786107,105.09109 L157.567357,105.09109 C157.306939,105.09109 157.088191,105.00255 156.911107,104.825465 C156.734023,104.648381 156.645482,104.429633 156.645482,104.169215 L156.645482,102.731715 C156.645482,102.481714 156.734023,102.265571 156.911107,102.083278 C157.088191,101.900985 157.306939,101.80984 157.567357,101.80984 L161.786107,101.80984 Z M153.582982,103.74734 C153.655899,103.74734 153.692357,103.710882 153.692357,103.637965 L153.692357,103.27859 C153.692357,103.195257 153.655899,103.15359 153.582982,103.15359 L152.020482,103.15359 C151.937148,103.15359 151.895482,103.195257 151.895482,103.27859 L151.895482,103.637965 C151.895482,103.710882 151.937148,103.74734 152.020482,103.74734 L153.582982,103.74734 Z M154.942357,101.80984 C155.202775,101.80984 155.421523,101.900985 155.598607,102.083278 C155.775691,102.265571 155.864232,102.481714 155.864232,102.731715 L155.864232,104.169215 C155.864232,104.429633 155.775691,104.648381 155.598607,104.825465 C155.421523,105.00255 155.202775,105.09109 154.942357,105.09109 L150.770482,105.09109 C150.520481,105.09109 150.304337,105.00255 150.122044,104.825465 C149.939752,104.648381 149.848607,104.429633 149.848607,104.169215 L149.848607,102.731715 C149.848607,102.481714 149.939752,102.265571 150.122044,102.083278 C150.304337,101.900985 150.520481,101.80984 150.770482,101.80984 L154.942357,101.80984 Z M152.786107,110.012965 C152.786107,110.096299 152.822565,110.137965 152.895482,110.137965 L154.848607,110.137965 C154.921524,110.137965 154.957982,110.096299 154.957982,110.012965 L154.957982,109.700465 C154.957982,109.617132 154.921524,109.575465 154.848607,109.575465 L152.895482,109.575465 C152.822565,109.575465 152.786107,109.617132 152.786107,109.700465 L152.786107,110.012965 Z M152.895482,107.387965 C152.822565,107.387965 152.786107,107.424423 152.786107,107.49734 L152.786107,107.825465 C152.786107,107.908799 152.822565,107.950465 152.895482,107.950465 L154.848607,107.950465 C154.921524,107.950465 154.957982,107.908799 154.957982,107.825465 L154.957982,107.49734 C154.957982,107.424423 154.921524,107.387965 154.848607,107.387965 L152.895482,107.387965 Z M159.598607,107.950465 C159.671524,107.950465 159.707982,107.908799 159.707982,107.825465 L159.707982,107.49734 C159.707982,107.424423 159.671524,107.387965 159.598607,107.387965 L157.489232,107.387965 C157.416315,107.387965 157.379857,107.424423 157.379857,107.49734 L157.379857,107.825465 C157.379857,107.908799 157.416315,107.950465 157.489232,107.950465 L159.598607,107.950465 Z M159.598607,110.137965 C159.671524,110.137965 159.707982,110.096299 159.707982,110.012965 L159.707982,109.700465 C159.707982,109.617132 159.671524,109.575465 159.598607,109.575465 L157.489232,109.575465 C157.416315,109.575465 157.379857,109.617132 157.379857,109.700465 L157.379857,110.012965 C157.379857,110.096299 157.416315,110.137965 157.489232,110.137965 L159.598607,110.137965 Z M162.551732,112.49734 C162.801733,112.49734 163.017877,112.588485 163.200169,112.770778 C163.382462,112.953071 163.473607,113.169214 163.473607,113.419215 L163.473607,113.55984 C163.473607,113.820258 163.382462,114.039006 163.200169,114.21609 C163.017877,114.393175 162.801733,114.481715 162.551732,114.481715 L157.489232,114.481715 C157.416315,114.481715 157.379857,114.523382 157.379857,114.606715 L157.379857,115.46609 C157.379857,115.726508 157.288712,115.945256 157.106419,116.12234 C156.924127,116.299425 156.707983,116.387965 156.457982,116.387965 L155.879857,116.387965 C155.629856,116.387965 155.413712,116.299425 155.231419,116.12234 C155.049127,115.945256 154.957982,115.726508 154.957982,115.46609 L154.957982,114.606715 C154.957982,114.523382 154.921524,114.481715 154.848607,114.481715 L149.973607,114.481715 C149.723606,114.481715 149.507462,114.393175 149.325169,114.21609 C149.142877,114.039006 149.051732,113.820258 149.051732,113.55984 L149.051732,113.419215 C149.051732,113.169214 149.142877,112.953071 149.325169,112.770778 C149.507462,112.588485 149.723606,112.49734 149.973607,112.49734 L154.848607,112.49734 C154.921524,112.49734 154.957982,112.460882 154.957982,112.387965 L154.957982,112.012965 C154.957982,111.940048 154.921524,111.90359 154.848607,111.90359 L151.426732,111.90359 C151.176731,111.90359 150.960587,111.812446 150.778294,111.630153 C150.596002,111.44786 150.504857,111.231717 150.504857,110.981715 L150.504857,106.544215 C150.504857,106.294214 150.596002,106.078071 150.778294,105.895778 C150.960587,105.713485 151.176731,105.62234 151.426732,105.62234 L161.192357,105.62234 C161.442358,105.62234 161.658502,105.713485 161.840794,105.895778 C162.023087,106.078071 162.114232,106.294214 162.114232,106.544215 L162.114232,110.981715 C162.114232,111.231717 162.023087,111.44786 161.840794,111.630153 C161.658502,111.812446 161.442358,111.90359 161.192357,111.90359 L157.489232,111.90359 C157.416315,111.90359 157.379857,111.940048 157.379857,112.012965 L157.379857,112.387965 C157.379857,112.460882 157.416315,112.49734 157.489232,112.49734 L162.551732,112.49734 Z" id="12:00-前完成訂單" fill="#FFFFFF"></path>
                <path d="M43.5213389,139.066905 C43.5213389,138.952321 43.4712092,138.89503 43.3709483,138.89503 L40.2771983,138.89503 C40.1769374,138.89503 40.1268076,138.952321 40.1268076,139.066905 L40.1268076,139.518077 C40.1268076,139.618338 40.1769374,139.668467 40.2771983,139.668467 L43.3709483,139.668467 C43.4712092,139.668467 43.5213389,139.618338 43.5213389,139.518077 L43.5213389,139.066905 Z M50.0740733,139.668467 C50.1886572,139.668467 50.2459483,139.618338 50.2459483,139.518077 L50.2459483,139.066905 C50.2459483,138.952321 50.1886572,138.89503 50.0740733,138.89503 L46.7869639,138.89503 C46.686703,138.89503 46.6365733,138.952321 46.6365733,139.066905 L46.6365733,139.518077 C46.6365733,139.618338 46.686703,139.668467 46.7869639,139.668467 L50.0740733,139.668467 Z M46.6365733,142.418467 C46.6365733,142.518728 46.686703,142.568858 46.7869639,142.568858 L50.0740733,142.568858 C50.1886572,142.568858 50.2459483,142.518728 50.2459483,142.418467 L50.2459483,141.924327 C50.2459483,141.809743 50.1886572,141.752452 50.0740733,141.752452 L46.7869639,141.752452 C46.686703,141.752452 46.6365733,141.809743 46.6365733,141.924327 L46.6365733,142.418467 Z M40.1268076,142.418467 C40.1268076,142.518728 40.1769374,142.568858 40.2771983,142.568858 L43.3709483,142.568858 C43.4712092,142.568858 43.5213389,142.518728 43.5213389,142.418467 L43.5213389,141.924327 C43.5213389,141.809743 43.4712092,141.752452 43.3709483,141.752452 L40.2771983,141.752452 C40.1769374,141.752452 40.1268076,141.809743 40.1268076,141.924327 L40.1268076,142.418467 Z M38.3221201,145.275889 C37.9783684,145.275889 37.6811709,145.154146 37.4305186,144.910655 C37.1798663,144.667164 37.054542,144.366386 37.054542,144.008311 L37.054542,137.906749 C37.054542,137.548674 37.1798663,137.247896 37.4305186,137.004405 C37.6811709,136.760914 37.9783684,136.639171 38.3221201,136.639171 L52.1580576,136.639171 C52.5161324,136.639171 52.8169106,136.760914 53.0604014,137.004405 C53.3038922,137.247896 53.4256358,137.548674 53.4256358,137.906749 L53.4256358,144.008311 C53.4256358,144.366386 53.3038922,144.667164 53.0604014,144.910655 C52.8169106,145.154146 52.5161324,145.275889 52.1580576,145.275889 L50.632667,145.275889 C50.5180831,145.275889 50.4249851,145.240082 50.3533701,145.168467 C50.2817552,145.096852 50.2459483,145.003754 50.2459483,144.889171 C50.2459483,144.860525 50.2244641,144.846202 50.1814951,144.846202 L40.1697764,144.846202 C40.1411304,144.846202 40.1268076,144.860525 40.1268076,144.889171 C40.1268076,145.003754 40.08742,145.096852 40.0086436,145.168467 C39.9298671,145.240082 39.8331884,145.275889 39.7186045,145.275889 L38.3221201,145.275889 Z M47.7322764,133.695811 C47.8325373,133.695811 47.882667,133.63852 47.882667,133.523936 L47.882667,132.965342 C47.882667,132.865082 47.8325373,132.814952 47.7322764,132.814952 L42.3396983,132.814952 C42.2394374,132.814952 42.1893076,132.865082 42.1893076,132.965342 L42.1893076,133.523936 C42.1893076,133.63852 42.2394374,133.695811 42.3396983,133.695811 L47.7322764,133.695811 Z M39.2244639,131.848155 C39.2244639,131.504403 39.3462075,131.207206 39.5896983,130.956553 C39.8331891,130.705901 40.1339673,130.580577 40.492042,130.580577 L49.773292,130.580577 C50.1313667,130.580577 50.432145,130.705901 50.6756358,130.956553 C50.9191266,131.207206 51.0408701,131.504403 51.0408701,131.848155 L51.0408701,134.662608 C51.0408701,135.020683 50.9191266,135.321461 50.6756358,135.564952 C50.432145,135.808443 50.1313667,135.930186 49.773292,135.930186 L40.492042,135.930186 C40.1339673,135.930186 39.8331891,135.808443 39.5896983,135.564952 C39.3462075,135.321461 39.2244639,135.020683 39.2244639,134.662608 L39.2244639,131.848155 Z M52.351417,127.014171 C52.337094,127.028494 52.337094,127.053558 52.351417,127.089366 C52.36574,127.125173 52.3872242,127.143077 52.4158701,127.143077 L53.7479014,127.143077 C54.0916531,127.143077 54.3888507,127.26482 54.639503,127.508311 C54.8901553,127.751802 55.0154795,128.05258 55.0154795,128.410655 L55.0154795,131.139171 C55.0154795,131.497245 54.8901553,131.798023 54.639503,132.041514 C54.3888507,132.285005 54.0916531,132.406749 53.7479014,132.406749 L53.1033701,132.406749 C52.7596184,132.406749 52.4624209,132.285005 52.2117686,132.041514 C51.9611163,131.798023 51.835792,131.497245 51.835792,131.139171 L51.835792,129.979014 C51.835792,129.86443 51.7856623,129.807139 51.6854014,129.807139 L38.5799326,129.807139 C38.4796717,129.807139 38.429542,129.86443 38.429542,129.979014 L38.429542,131.139171 C38.429542,131.497245 38.3042178,131.798023 38.0535655,132.041514 C37.8029132,132.285005 37.5057156,132.406749 37.1619639,132.406749 L36.6678233,132.406749 C36.3240715,132.406749 36.026874,132.285005 35.7762217,132.041514 C35.5255694,131.798023 35.4002451,131.497245 35.4002451,131.139171 L35.4002451,128.410655 C35.4002451,128.05258 35.5255694,127.751802 35.7762217,127.508311 C36.026874,127.26482 36.3240715,127.143077 36.6678233,127.143077 L37.8494639,127.143077 C37.8781099,127.143077 37.9031747,127.125173 37.9246592,127.089366 C37.9461437,127.053558 37.9497244,127.021332 37.9354014,126.992686 L37.7205576,126.648936 C37.6202967,126.47706 37.570167,126.298026 37.570167,126.111827 C37.570167,125.997243 37.5916512,125.882661 37.6346201,125.768077 C37.7205581,125.467294 37.9139155,125.259614 38.2146983,125.14503 L38.6873545,124.951671 C38.9021993,124.865733 39.1170409,124.822764 39.3318858,124.822764 C39.4751157,124.822764 39.6255048,124.844248 39.7830576,124.887217 C40.1554553,124.987478 40.4419108,125.187997 40.6424326,125.48878 C41.0148303,126.033053 41.2941244,126.534351 41.4803233,126.992686 C41.5089692,127.049978 41.4946465,127.092946 41.4373545,127.121592 L41.4373545,127.143077 L43.2850108,127.143077 C43.3852717,127.143077 43.4354014,127.085786 43.4354014,126.971202 L43.4354014,125.596202 C43.4354014,125.25245 43.5607257,124.955253 43.811378,124.7046 C44.0620303,124.453948 44.3592278,124.328624 44.7029795,124.328624 L45.4119639,124.328624 C45.7557156,124.328624 46.0529132,124.453948 46.3035655,124.7046 C46.5542178,124.955253 46.679542,125.25245 46.679542,125.596202 L46.679542,126.971202 C46.679542,127.085786 46.7296717,127.143077 46.8299326,127.143077 L48.6561045,127.143077 C48.7563654,127.143077 48.8351407,127.092947 48.8924326,126.992686 C49.1502464,126.562997 49.3937336,126.111829 49.6229014,125.639171 C49.7661313,125.309742 50.002457,125.066255 50.3318858,124.908702 C50.5324076,124.808441 50.7400878,124.758311 50.9549326,124.758311 C51.0695165,124.758311 51.1912601,124.772634 51.320167,124.80128 L52.3084483,125.080577 C52.609231,125.166515 52.8097499,125.352711 52.9100108,125.639171 C52.9529797,125.739431 52.9744639,125.839691 52.9744639,125.939952 C52.9744639,126.111828 52.9100114,126.27654 52.7811045,126.434092 C52.6378746,126.634614 52.4946469,126.827972 52.351417,127.014171 Z M62.5135264,139.625499 C62.5135264,139.740083 62.5708175,139.797374 62.6854014,139.797374 L71.4939951,139.797374 C71.5942561,139.797374 71.6443858,139.740083 71.6443858,139.625499 L71.6443858,135.672374 C71.6443858,135.55779 71.5942561,135.500499 71.4939951,135.500499 L62.6854014,135.500499 C62.5708175,135.500499 62.5135264,135.55779 62.5135264,135.672374 L62.5135264,139.625499 Z M71.6443858,128.453624 C71.6443858,128.353363 71.5942561,128.303233 71.4939951,128.303233 L62.6854014,128.303233 C62.5708175,128.303233 62.5135264,128.353363 62.5135264,128.453624 L62.5135264,132.191905 C62.5135264,132.292166 62.5708175,132.342296 62.6854014,132.342296 L71.4939951,132.342296 C71.5942561,132.342296 71.6443858,132.292166 71.6443858,132.191905 L71.6443858,128.453624 Z M59.2049326,126.348155 C59.2049326,126.004403 59.3302569,125.707206 59.5809092,125.456553 C59.8315615,125.205901 60.128759,125.080577 60.4725108,125.080577 L73.835792,125.080577 C74.1795437,125.080577 74.4767413,125.205901 74.7273936,125.456553 C74.9780459,125.707206 75.1033701,126.004403 75.1033701,126.348155 L75.1033701,143.213389 C75.1033701,143.557141 74.9780459,143.854339 74.7273936,144.104991 C74.4767413,144.355643 74.1795437,144.480967 73.835792,144.480967 L72.9119639,144.480967 C72.5682122,144.480967 72.2710146,144.355643 72.0203623,144.104991 C71.76971,143.854339 71.6443858,143.557141 71.6443858,143.213389 L71.6443858,143.191905 C71.6443858,143.077321 71.5942561,143.02003 71.4939951,143.02003 L62.6854014,143.02003 C62.5708175,143.02003 62.5135264,143.077321 62.5135264,143.191905 L62.5135264,143.213389 C62.5135264,143.557141 62.3882021,143.854339 62.1375498,144.104991 C61.8868975,144.355643 61.5897,144.480967 61.2459483,144.480967 L60.4725108,144.480967 C60.128759,144.480967 59.8315615,144.355643 59.5809092,144.104991 C59.3302569,143.854339 59.2049326,143.557141 59.2049326,143.213389 L59.2049326,126.348155 Z M82.9666514,129.098155 C82.8520675,129.098155 82.7947764,129.148285 82.7947764,129.248546 L82.7947764,130.279796 C82.7947764,130.63787 82.6730328,130.938648 82.429542,131.182139 C82.1860512,131.42563 81.885273,131.547374 81.5271983,131.547374 L80.8182139,131.547374 C80.4601392,131.547374 80.1593609,131.42563 79.9158701,131.182139 C79.6723793,130.938648 79.5506358,130.63787 79.5506358,130.279796 L79.5506358,127.336436 C79.5506358,126.992684 79.6723793,126.695487 79.9158701,126.444835 C80.1593609,126.194182 80.4601392,126.068858 80.8182139,126.068858 L87.1775889,126.068858 C87.2778498,126.068858 87.3279795,126.018728 87.3279795,125.918467 L87.3279795,125.639171 C87.3279795,125.281096 87.4533038,124.980318 87.7039561,124.736827 C87.9546084,124.493336 88.2518059,124.371592 88.5955576,124.371592 L89.4979014,124.371592 C89.8416531,124.371592 90.1388507,124.493336 90.389503,124.736827 C90.6401553,124.980318 90.7654795,125.281096 90.7654795,125.639171 L90.7654795,125.918467 C90.7654795,126.018728 90.8156092,126.068858 90.9158701,126.068858 L97.382667,126.068858 C97.7407417,126.068858 98.04152,126.194182 98.2850108,126.444835 C98.5285016,126.695487 98.6502451,126.992684 98.6502451,127.336436 L98.6502451,130.279796 C98.6502451,130.63787 98.5285016,130.938648 98.2850108,131.182139 C98.04152,131.42563 97.7407417,131.547374 97.382667,131.547374 L96.5018076,131.547374 C96.1437329,131.547374 95.8429547,131.42563 95.5994639,131.182139 C95.3559731,130.938648 95.2342295,130.63787 95.2342295,130.279796 L95.2342295,129.248546 C95.2342295,129.148285 95.1769384,129.098155 95.0623545,129.098155 L82.9666514,129.098155 Z M91.5818858,141.945811 L94.7615733,141.945811 C95.2342319,141.945811 95.5636557,141.83839 95.7498545,141.623546 C95.9360534,141.408701 96.0721197,140.964695 96.1580576,140.291514 C96.2010266,140.005055 96.3514157,139.797374 96.6092295,139.668467 C96.7381364,139.596852 96.8742028,139.561046 97.0174326,139.561046 C97.1463395,139.561046 97.2680831,139.589691 97.382667,139.646983 C97.6548038,139.77589 97.9484207,139.890472 98.2635264,139.990733 C98.6072781,140.11964 98.8794108,140.334482 99.0799326,140.635264 C99.2374855,140.864432 99.3162608,141.107919 99.3162608,141.365733 C99.3162608,141.437348 99.3090994,141.516123 99.2947764,141.602061 C99.0369626,142.934099 98.600118,143.847176 97.9842295,144.341319 C97.368341,144.835462 96.387231,145.08253 95.0408701,145.08253 L91.1736826,145.08253 C89.3833091,145.08253 88.1730348,144.781752 87.5428233,144.180186 C86.9126118,143.578621 86.5975108,142.461444 86.5975108,140.828624 L86.5975108,139.045421 C86.5975108,138.930837 86.5473811,138.880707 86.4471201,138.89503 L80.7967295,139.453624 C80.7537606,139.467947 80.7107922,139.475108 80.6678233,139.475108 C80.3670405,139.475108 80.0949078,139.374849 79.851417,139.174327 C79.5792802,138.959482 79.4217297,138.680188 79.3787608,138.336436 L79.3143076,137.734874 C79.2999847,137.677582 79.2928233,137.620291 79.2928233,137.562999 C79.2928233,137.290862 79.3859213,137.040213 79.5721201,136.811046 C79.786965,136.553232 80.066259,136.402843 80.4100108,136.359874 L86.4471201,135.822764 C86.5473811,135.808441 86.5975108,135.743989 86.5975108,135.629405 L86.5975108,134.318858 C86.5975108,134.204274 86.5473811,134.154144 86.4471201,134.168467 C85.6163868,134.283051 84.6782452,134.390472 83.632667,134.490733 L83.5037608,134.490733 C83.202978,134.490733 82.9308453,134.397635 82.6873545,134.211436 C82.3865718,133.996591 82.1788915,133.717297 82.0643076,133.373546 C82.0213387,133.230316 81.9783704,133.094249 81.9354014,132.965342 C81.8924324,132.836436 81.8709483,132.714692 81.8709483,132.600108 C81.8709483,132.442555 81.9139166,132.285005 81.9998545,132.127452 C82.1574074,131.855315 82.3865718,131.704926 82.6873545,131.67628 C86.3970085,131.260913 89.4477592,130.659357 91.8396983,129.871592 C92.0402201,129.799977 92.2479003,129.764171 92.4627451,129.764171 C92.620298,129.764171 92.7778485,129.785655 92.9354014,129.828624 C93.3221221,129.914562 93.6443845,130.093596 93.9021983,130.365733 L94.632667,131.160655 C94.7758969,131.318208 94.8475108,131.497242 94.8475108,131.697764 C94.8475108,131.769379 94.8403494,131.848154 94.8260264,131.934092 C94.7544115,132.220552 94.5753768,132.406748 94.288917,132.492686 C93.085786,132.89373 91.7466067,133.237476 90.2713389,133.523936 C90.171078,133.552582 90.1209483,133.617035 90.1209483,133.717296 L90.1209483,135.307139 C90.1209483,135.421723 90.1782394,135.471853 90.2928233,135.45753 L97.382667,134.812999 L97.5115733,134.812999 C97.812356,134.812999 98.0773273,134.906097 98.3064951,135.092296 C98.5929549,135.321463 98.7576668,135.607919 98.8006358,135.951671 L98.8436045,136.402842 C98.8579275,136.474457 98.8650889,136.531748 98.8650889,136.574717 C98.8650889,136.861177 98.7719909,137.118987 98.585792,137.348155 C98.3709472,137.605969 98.0916531,137.756358 97.7479014,137.799327 L90.2928233,138.529796 C90.1782394,138.544119 90.1209483,138.60141 90.1209483,138.701671 L90.1209483,140.785655 C90.1209483,141.301282 90.2033042,141.623545 90.3680186,141.752452 C90.5327329,141.881359 90.9373513,141.945811 91.5818858,141.945811 Z M106.212745,129.248546 C106.327329,129.248546 106.38462,129.191254 106.38462,129.076671 L106.38462,128.066905 C106.38462,127.952321 106.327329,127.89503 106.212745,127.89503 L105.89048,127.89503 C105.775896,127.89503 105.718605,127.952321 105.718605,128.066905 L105.718605,129.076671 C105.718605,129.191254 105.775896,129.248546 105.89048,129.248546 L106.212745,129.248546 Z M103.591651,141.172374 C103.591651,141.272635 103.641781,141.322764 103.742042,141.322764 L107.995948,141.322764 C108.110532,141.322764 108.167823,141.272635 108.167823,141.172374 L108.167823,140.398936 C108.167823,140.298675 108.110532,140.248546 107.995948,140.248546 L103.742042,140.248546 C103.641781,140.248546 103.591651,140.298675 103.591651,140.398936 L103.591651,141.172374 Z M104.257667,132.02003 C104.257667,131.919769 104.200376,131.869639 104.085792,131.869639 L103.742042,131.869639 C103.641781,131.869639 103.591651,131.919769 103.591651,132.02003 L103.591651,136.230967 C103.591651,136.259613 103.602393,136.277517 103.623878,136.284678 C103.645362,136.29184 103.663266,136.281098 103.677589,136.252452 C104.06431,135.665209 104.257667,134.777197 104.257667,133.588389 L104.257667,132.02003 Z M107.995948,136.896983 L107.41587,136.896983 C106.900243,136.896983 106.556496,136.77882 106.38462,136.542491 C106.212744,136.306162 106.126808,135.829929 106.126808,135.11378 L106.126808,132.02003 C106.126808,131.919769 106.069517,131.869639 105.954933,131.869639 L105.783058,131.869639 C105.668474,131.869639 105.611183,131.919769 105.611183,132.02003 L105.611183,133.609874 C105.611183,134.698421 105.475116,135.615078 105.20298,136.359874 C105.102719,136.63201 104.887877,136.789561 104.558448,136.83253 C104.501156,136.846853 104.451027,136.854014 104.408058,136.854014 C104.150244,136.854014 103.921079,136.775239 103.720558,136.617686 C103.691912,136.58904 103.663266,136.58546 103.63462,136.606944 C103.605974,136.628428 103.591651,136.653493 103.591651,136.682139 L103.591651,137.928233 C103.591651,138.028494 103.641781,138.078624 103.742042,138.078624 L107.995948,138.078624 C108.110532,138.078624 108.167823,138.028494 108.167823,137.928233 L108.167823,137.068858 C108.167823,136.954274 108.110532,136.896983 107.995948,136.896983 Z M108.146339,135.436046 L108.167823,135.436046 L108.167823,132.02003 C108.167823,131.919769 108.110532,131.869639 107.995948,131.869639 L107.652198,131.869639 C107.537614,131.869639 107.480323,131.919769 107.480323,132.02003 L107.480323,135.092296 C107.480323,135.249848 107.487485,135.346527 107.501808,135.382335 C107.516131,135.418142 107.551938,135.436046 107.60923,135.436046 L107.738136,135.436046 C107.85272,135.436046 107.931495,135.421723 107.974464,135.393077 C108.031756,135.364431 108.074724,135.364431 108.10337,135.393077 L108.146339,135.436046 Z M102.130714,127.89503 C101.772639,127.89503 101.471861,127.773286 101.22837,127.529796 C100.984879,127.286305 100.863136,126.985527 100.863136,126.627452 L100.863136,126.369639 C100.863136,126.025888 100.984879,125.72869 101.22837,125.478038 C101.471861,125.227385 101.772639,125.102061 102.130714,125.102061 L109.800636,125.102061 C110.144387,125.102061 110.441585,125.227385 110.692237,125.478038 C110.94289,125.72869 111.068214,126.025888 111.068214,126.369639 L111.068214,126.627452 C111.068214,126.985527 110.94289,127.286305 110.692237,127.529796 C110.441585,127.773286 110.144387,127.89503 109.800636,127.89503 L108.597511,127.89503 C108.482927,127.89503 108.425636,127.952321 108.425636,128.066905 L108.425636,129.076671 C108.425636,129.191254 108.482927,129.248546 108.597511,129.248546 L109.413917,129.248546 C109.757669,129.248546 110.054866,129.370289 110.305519,129.61378 C110.556171,129.857271 110.681495,130.158049 110.681495,130.516124 L110.681495,143.514171 C110.681495,143.872245 110.556171,144.173023 110.305519,144.416514 C110.054866,144.660005 109.757669,144.781749 109.413917,144.781749 L109.070167,144.781749 C108.812353,144.781749 108.597512,144.692231 108.425636,144.513194 C108.25376,144.334157 108.167823,144.122896 108.167823,143.879405 C108.167823,143.80779 108.124855,143.771983 108.038917,143.771983 L103.742042,143.771983 C103.641781,143.771983 103.591651,143.822113 103.591651,143.922374 C103.591651,144.237479 103.477069,144.509612 103.247901,144.73878 C103.018734,144.967948 102.739439,145.08253 102.410011,145.08253 L102.388526,145.08253 C102.059098,145.08253 101.776223,144.964367 101.539894,144.728038 C101.303564,144.491708 101.185401,144.208834 101.185401,143.879405 L101.185401,130.516124 C101.185401,130.158049 101.310726,129.857271 101.561378,129.61378 C101.81203,129.370289 102.109228,129.248546 102.45298,129.248546 L103.527198,129.248546 C103.641782,129.248546 103.699073,129.191254 103.699073,129.076671 L103.699073,128.066905 C103.699073,127.952321 103.641782,127.89503 103.527198,127.89503 L102.130714,127.89503 Z M115.837745,141.945811 L117.771339,141.945811 C118.086445,141.945811 118.308448,141.813326 118.437355,141.54835 C118.566261,141.283375 118.659359,140.728367 118.716651,139.883311 C118.730974,139.611174 118.867041,139.403494 119.124855,139.260264 C119.253761,139.202972 119.382666,139.174327 119.511573,139.174327 C119.64048,139.174327 119.762224,139.202972 119.876808,139.260264 C120.063006,139.346202 120.256364,139.424977 120.456886,139.496592 C120.800637,139.639822 121.07277,139.861825 121.273292,140.162608 C121.445168,140.406099 121.531105,140.67107 121.531105,140.95753 C121.531105,141.014822 121.523943,141.079274 121.50962,141.150889 C121.323421,142.568865 120.976094,143.549975 120.467628,144.094249 C119.959162,144.638522 119.160667,144.910655 118.07212,144.910655 L115.343605,144.910655 C113.982921,144.910655 113.05194,144.62778 112.550636,144.062022 C112.049331,143.496264 111.798683,142.43996 111.798683,140.893077 L111.798683,133.180186 C111.798683,132.822111 111.920426,132.521333 112.163917,132.277842 C112.407408,132.034352 112.708186,131.912608 113.066261,131.912608 L117.535011,131.912608 C117.635272,131.912608 117.685401,131.855317 117.685401,131.740733 L117.685401,128.58253 C117.685401,128.482269 117.635272,128.432139 117.535011,128.432139 L112.980323,128.432139 C112.622249,128.432139 112.32147,128.306815 112.07798,128.056163 C111.834489,127.80551 111.712745,127.508313 111.712745,127.164561 L111.712745,126.627452 C111.712745,126.269377 111.834489,125.968599 112.07798,125.725108 C112.32147,125.481617 112.622249,125.359874 112.980323,125.359874 L119.533058,125.359874 C119.876809,125.359874 120.174007,125.481617 120.424659,125.725108 C120.675312,125.968599 120.800636,126.269377 120.800636,126.627452 L120.800636,134.963389 C120.800636,135.321464 120.675312,135.622242 120.424659,135.865733 C120.174007,136.109224 119.876809,136.230967 119.533058,136.230967 L118.845558,136.230967 C118.530452,136.230967 118.258319,136.119966 118.029151,135.89796 C117.799984,135.675953 117.685401,135.407401 117.685401,135.092296 C117.685401,134.992035 117.635272,134.941905 117.535011,134.941905 L115.128761,134.941905 C115.014177,134.941905 114.956886,134.999196 114.956886,135.11378 L114.956886,140.871592 C114.956886,141.344251 115.007015,141.641449 115.107276,141.763194 C115.207537,141.884939 115.451024,141.945811 115.837745,141.945811 Z M130.10337,140.742686 C130.10337,140.85727 130.1535,140.9074 130.253761,140.893077 L132.85337,140.592296 L133.003761,140.592296 C133.290221,140.592296 133.540869,140.692555 133.755714,140.893077 C134.013528,141.107922 134.149594,141.387216 134.163917,141.730967 L134.163917,142.160655 C134.17824,142.51873 134.070819,142.837411 133.841651,143.11671 C133.612484,143.396008 133.318867,143.557139 132.960792,143.600108 C131.285002,143.829276 128.43477,144.187345 124.410011,144.674327 L124.238136,144.674327 C123.951676,144.674327 123.693866,144.58839 123.464698,144.416514 C123.178239,144.201669 123.006365,143.915214 122.949073,143.557139 L122.841651,142.891124 L122.841651,142.697764 C122.841651,142.425628 122.927588,142.18214 123.099464,141.967296 C123.299986,141.709482 123.572118,141.559093 123.91587,141.516124 C124.016131,141.516124 124.961434,141.430187 126.751808,141.258311 C126.852069,141.243988 126.902198,141.179536 126.902198,141.064952 L126.902198,139.174327 C126.902198,139.059743 126.852069,139.002452 126.751808,139.002452 L124.839698,139.002452 C124.481624,139.002452 124.180845,138.880708 123.937355,138.637217 C123.693864,138.393727 123.57212,138.092948 123.57212,137.734874 L123.57212,137.434092 C123.57212,137.090341 123.693864,136.793143 123.937355,136.542491 C124.180845,136.291839 124.481624,136.166514 124.839698,136.166514 L126.751808,136.166514 C126.852069,136.166514 126.902198,136.116385 126.902198,136.016124 L126.902198,135.564952 C126.902198,135.2212 127.027523,134.924003 127.278175,134.67335 C127.528827,134.422698 127.826025,134.297374 128.169776,134.297374 L128.835792,134.297374 C129.179544,134.297374 129.476741,134.422698 129.727394,134.67335 C129.978046,134.924003 130.10337,135.2212 130.10337,135.564952 L130.10337,136.016124 C130.10337,136.116385 130.1535,136.166514 130.253761,136.166514 L132.101417,136.166514 C132.459492,136.166514 132.76027,136.291839 133.003761,136.542491 C133.247252,136.793143 133.368995,137.090341 133.368995,137.434092 L133.368995,137.734874 C133.368995,138.092948 133.247252,138.393727 133.003761,138.637217 C132.76027,138.880708 132.459492,139.002452 132.101417,139.002452 L130.253761,139.002452 C130.1535,139.002452 130.10337,139.059743 130.10337,139.174327 L130.10337,140.742686 Z M127.933448,130.98878 C127.919125,131.017426 127.922706,131.049652 127.94419,131.08546 C127.965675,131.121267 127.997901,131.139171 128.04087,131.139171 L130.253761,131.096202 C130.282407,131.096202 130.303891,131.081879 130.318214,131.053233 C130.332537,131.024587 130.332537,130.995942 130.318214,130.967296 C130.275245,130.895681 130.232277,130.831228 130.189308,130.773936 C130.060401,130.573414 129.995948,130.365734 129.995948,130.150889 C129.995948,130.050628 130.010271,129.95753 130.038917,129.871592 C130.124855,129.542164 130.311051,129.298677 130.597511,129.141124 L131.650245,128.604014 C131.664568,128.589691 131.67173,128.571788 131.67173,128.550303 C131.67173,128.528819 131.657407,128.518077 131.628761,128.518077 L129.136573,128.518077 C129.021989,128.518077 128.950375,128.568207 128.92173,128.668467 C128.563655,129.54217 128.234231,130.315599 127.933448,130.98878 Z M137.880714,138.357921 C137.880714,138.715995 137.75897,139.016773 137.51548,139.260264 C137.271989,139.503755 136.97121,139.625499 136.613136,139.625499 L136.097511,139.625499 C135.739436,139.625499 135.438658,139.503755 135.195167,139.260264 C134.951676,139.016773 134.829933,138.715995 134.829933,138.357921 L134.829933,133.566905 C134.829933,133.523936 134.81561,133.49529 134.786964,133.480967 C134.758318,133.466644 134.722511,133.466644 134.679542,133.480967 L133.154151,134.318858 C133.025244,134.390473 132.89634,134.42628 132.767433,134.42628 C132.667172,134.42628 132.566912,134.411957 132.466651,134.383311 C132.237484,134.28305 132.072772,134.118338 131.972511,133.889171 C131.943865,133.817556 131.886574,133.781749 131.800636,133.781749 C129.95297,133.88201 127.453646,133.98943 124.302589,134.104014 L124.25962,134.104014 C123.915868,134.104014 123.622252,133.989432 123.378761,133.760264 C123.120947,133.531096 122.977719,133.23748 122.949073,132.879405 L122.927589,132.471202 C122.913266,132.12745 123.024267,131.830253 123.260597,131.5796 C123.496926,131.328948 123.786962,131.196462 124.130714,131.182139 L124.517433,131.182139 C124.632017,131.182139 124.70363,131.13201 124.732276,131.031749 C125.004413,130.215338 125.226416,129.427586 125.398292,128.668467 C125.426938,128.568207 125.38397,128.518077 125.269386,128.518077 L124.173683,128.518077 C123.815608,128.518077 123.51483,128.392753 123.271339,128.1421 C123.027848,127.891448 122.906105,127.59425 122.906105,127.250499 L122.906105,126.971202 C122.906105,126.62745 123.027848,126.330253 123.271339,126.0796 C123.51483,125.828948 123.815608,125.703624 124.173683,125.703624 L132.831886,125.703624 C133.18996,125.703624 133.490739,125.828948 133.73423,126.0796 C133.97772,126.330253 134.099464,126.62745 134.099464,126.971202 L134.099464,127.250499 C134.099464,127.59425 133.97772,127.891448 133.73423,128.1421 C133.490739,128.392753 133.18996,128.518077 132.831886,128.518077 L132.01548,128.518077 C131.986834,128.518077 131.965349,128.5324 131.951026,128.561046 C131.936703,128.589692 131.936703,128.618337 131.951026,128.646983 C133.31171,130.394388 134.249852,131.898279 134.76548,133.158702 C134.779803,133.173025 134.794125,133.180186 134.808448,133.180186 C134.822771,133.180186 134.829933,133.173025 134.829933,133.158702 L134.829933,128.303233 C134.829933,127.959481 134.951676,127.662284 135.195167,127.411631 C135.438658,127.160979 135.739436,127.035655 136.097511,127.035655 L136.613136,127.035655 C136.97121,127.035655 137.271989,127.160979 137.51548,127.411631 C137.75897,127.662284 137.880714,127.959481 137.880714,128.303233 L137.880714,138.357921 Z M139.72837,126.219249 C139.72837,125.875497 139.853694,125.578299 140.104347,125.327647 C140.354999,125.076995 140.652197,124.951671 140.995948,124.951671 L141.597511,124.951671 C141.941262,124.951671 142.23846,125.076995 142.489112,125.327647 C142.739765,125.578299 142.865089,125.875497 142.865089,126.219249 L142.865089,141.559092 C142.865089,142.432795 142.76841,143.098804 142.57505,143.557139 C142.381689,144.015475 142.048685,144.373544 141.576026,144.631358 C140.931492,144.960787 139.900252,145.154144 138.482276,145.211436 L138.417823,145.211436 C138.088395,145.211436 137.787616,145.104015 137.51548,144.889171 C137.22902,144.660003 137.035662,144.366386 136.935401,144.008311 C136.863786,143.736174 136.77785,143.45688 136.677589,143.170421 C136.63462,143.07016 136.613136,142.9699 136.613136,142.869639 C136.613136,142.712086 136.663265,142.554536 136.763526,142.396983 C136.935402,142.167815 137.157405,142.053233 137.429542,142.053233 L137.451026,142.053233 C137.966654,142.067556 138.546726,142.074717 139.191261,142.074717 C139.391783,142.060394 139.53143,142.017426 139.610206,141.945811 C139.688983,141.874196 139.72837,141.73813 139.72837,141.537608 L139.72837,126.219249 Z M148.945167,128.840342 C148.830583,128.840342 148.773292,128.897634 148.773292,129.012217 L148.773292,129.979014 C148.773292,130.322766 148.651548,130.619964 148.408058,130.870616 C148.164567,131.121268 147.863789,131.246592 147.505714,131.246592 L146.925636,131.246592 C146.567561,131.246592 146.266783,131.121268 146.023292,130.870616 C145.779801,130.619964 145.658058,130.322766 145.658058,129.979014 L145.658058,127.229014 C145.658058,126.885263 145.779801,126.588065 146.023292,126.337413 C146.266783,126.08676 146.567561,125.961436 146.925636,125.961436 L153.285011,125.961436 C153.385272,125.961436 153.435401,125.911306 153.435401,125.811046 L153.435401,125.639171 C153.435401,125.281096 153.560726,124.980318 153.811378,124.736827 C154.06203,124.493336 154.359228,124.371592 154.70298,124.371592 L155.476417,124.371592 C155.820169,124.371592 156.117366,124.493336 156.368019,124.736827 C156.618671,124.980318 156.743995,125.281096 156.743995,125.639171 L156.743995,125.811046 C156.743995,125.911306 156.794125,125.961436 156.894386,125.961436 L163.361183,125.961436 C163.719257,125.961436 164.020036,126.08676 164.263526,126.337413 C164.507017,126.588065 164.628761,126.885263 164.628761,127.229014 L164.628761,129.979014 C164.628761,130.322766 164.507017,130.619964 164.263526,130.870616 C164.020036,131.121268 163.719257,131.246592 163.361183,131.246592 L162.630714,131.246592 C162.272639,131.246592 161.971861,131.121268 161.72837,130.870616 C161.484879,130.619964 161.363136,130.322766 161.363136,129.979014 L161.363136,129.012217 C161.363136,128.897634 161.305845,128.840342 161.191261,128.840342 L148.945167,128.840342 Z M153.585792,142.182139 C153.943867,142.038909 154.230322,141.745293 154.445167,141.30128 C154.559751,141.057789 154.631365,140.778495 154.660011,140.463389 C154.660011,140.434743 154.645688,140.413259 154.617042,140.398936 C154.588396,140.384613 154.55975,140.384613 154.531105,140.398936 C153.628756,141.014825 152.633324,141.60922 151.544776,142.182139 C151.51613,142.182139 151.505388,142.192881 151.51255,142.214366 C151.519711,142.23585 151.530453,142.253754 151.544776,142.268077 C151.859882,142.2824 152.289565,142.289561 152.833839,142.289561 C153.148945,142.289561 153.399593,142.253754 153.585792,142.182139 Z M161.363136,133.137217 C161.635273,132.893727 161.950374,132.771983 162.308448,132.771983 L162.351417,132.771983 C162.695169,132.771983 163.003108,132.886565 163.275245,133.115733 L163.855323,133.609874 C164.084491,133.810396 164.199073,134.061044 164.199073,134.361827 C164.199073,134.705579 164.055846,134.977711 163.769386,135.178233 C162.88136,135.779799 162.021994,136.316903 161.191261,136.789561 C161.091,136.83253 161.069516,136.896983 161.126808,136.982921 C162.057802,138.415219 163.160655,139.539557 164.435401,140.355967 C164.693215,140.527843 164.843604,140.764169 164.886573,141.064952 C164.900896,141.122244 164.908058,141.179535 164.908058,141.236827 C164.908058,141.480318 164.829282,141.695159 164.67173,141.881358 C164.442562,142.153495 164.220559,142.425628 164.005714,142.697764 C163.790869,142.984224 163.518736,143.17042 163.189308,143.256358 C163.10337,143.270681 163.010272,143.277842 162.910011,143.277842 C162.680843,143.277842 162.466001,143.206229 162.26548,143.062999 C160.775889,141.988775 159.565614,140.585143 158.63462,138.852061 C157.703626,137.11898 156.937358,135.049339 156.335792,132.643077 C156.321469,132.600108 156.299985,132.571462 156.271339,132.557139 C156.242693,132.542816 156.206886,132.549978 156.163917,132.578624 C155.734227,132.936698 155.304544,133.251799 154.874855,133.523936 C154.788917,133.581228 154.781755,133.645681 154.85337,133.717296 C155.798687,134.576675 156.53273,135.557785 157.055519,136.660655 C157.578308,137.763525 157.868344,138.794765 157.925636,139.754405 L157.925636,140.205577 C157.925636,141.007664 157.811054,141.752448 157.581886,142.439952 C157.309749,143.242039 156.894389,143.843596 156.335792,144.244639 C155.906102,144.63136 155.476419,144.899912 155.04673,145.050303 C154.61704,145.200695 154.079936,145.275889 153.435401,145.275889 C153.292172,145.290212 153.141782,145.297374 152.98423,145.297374 L152.855323,145.297374 C152.497249,145.297374 152.185728,145.172049 151.920753,144.921397 C151.655778,144.670745 151.487485,144.359224 151.41587,143.986827 C151.301286,143.485522 151.150897,143.041516 150.964698,142.654796 C150.921729,142.554535 150.850115,142.53305 150.749855,142.590342 C149.833183,143.034355 148.880719,143.449715 147.892433,143.836436 C147.73488,143.893728 147.570168,143.922374 147.398292,143.922374 C147.226416,143.922374 147.061704,143.893728 146.904151,143.836436 C146.5604,143.693206 146.295428,143.464042 146.10923,143.148936 C146.008969,142.97706 145.901548,142.812348 145.786964,142.654796 C145.686703,142.497243 145.636573,142.332531 145.636573,142.160655 C145.636573,142.060394 145.650896,141.960135 145.679542,141.859874 C145.779803,141.573414 145.97316,141.387218 146.25962,141.30128 C147.663273,140.885913 149.059743,140.345229 150.449073,139.67921 C151.838403,139.013191 153.012871,138.314955 153.972511,137.584483 C154.058449,137.527191 154.079933,137.448416 154.036964,137.348155 L153.951026,137.219249 C153.908057,137.118988 153.836444,137.097504 153.736183,137.154796 C152.217946,138.114436 150.506374,138.980964 148.601417,139.754405 C148.429541,139.82602 148.257668,139.861827 148.085792,139.861827 C147.913916,139.861827 147.749204,139.82602 147.591651,139.754405 C147.2479,139.625498 146.975767,139.403495 146.775245,139.088389 C146.717953,138.988128 146.660662,138.89503 146.60337,138.809092 C146.488786,138.65154 146.431495,138.486828 146.431495,138.314952 C146.431495,138.229014 146.452979,138.135916 146.495948,138.035655 C146.581886,137.749195 146.768082,137.57016 147.054542,137.498546 C149.188667,136.882657 150.943207,136.152196 152.318214,135.307139 C152.404152,135.249847 152.411313,135.185395 152.339698,135.11378 C152.325375,135.11378 152.311053,135.106619 152.29673,135.092296 L152.275245,135.070811 C152.20363,134.999196 152.117694,134.984873 152.017433,135.027842 C150.828625,135.54347 149.575382,135.994637 148.257667,136.381358 C148.114437,136.424327 147.971209,136.445811 147.82798,136.445811 C147.627458,136.445811 147.426939,136.402843 147.226417,136.316905 C146.882665,136.173675 146.610533,135.944511 146.410011,135.629405 C146.324073,135.500498 146.245298,135.378754 146.173683,135.264171 C146.073422,135.120941 146.023292,134.970552 146.023292,134.812999 C146.023292,134.712738 146.044776,134.605317 146.087745,134.490733 C146.188006,134.218596 146.381364,134.053884 146.667823,133.996592 C148.415228,133.609872 149.969249,133.122897 151.329933,132.535655 C151.344256,132.535655 151.351417,132.524913 151.351417,132.503428 C151.351417,132.481944 151.344256,132.471202 151.329933,132.471202 L150.57798,132.471202 C150.219905,132.471202 149.919127,132.349458 149.675636,132.105967 C149.432145,131.862477 149.310401,131.561698 149.310401,131.203624 L149.310401,131.053233 C149.310401,130.709481 149.432145,130.412284 149.675636,130.161631 C149.919127,129.910979 150.219905,129.785655 150.57798,129.785655 L159.622901,129.785655 C159.980976,129.785655 160.281754,129.910979 160.525245,130.161631 C160.768736,130.412284 160.89048,130.709481 160.89048,131.053233 L160.89048,131.203624 C160.89048,131.561698 160.768736,131.862477 160.525245,132.105967 C160.281754,132.349458 159.980976,132.471202 159.622901,132.471202 L159.32212,132.471202 C159.279151,132.471202 159.246925,132.489105 159.22544,132.524913 C159.203956,132.56072 159.193214,132.600108 159.193214,132.643077 C159.336444,133.130058 159.515478,133.638517 159.730323,134.168467 C159.773292,134.268728 159.837745,134.290212 159.923683,134.232921 C160.410664,133.889169 160.890477,133.523938 161.363136,133.137217 Z" id="當日宅配到家" fill="#FFFFFF"></path>
                <g id="home-icon-silhouette" transform="translate(78.297872, 44.255319)" fill="#FFFFFF">
                    <path d="M41.7668685,18.5484584 L35.3290101,11.9063786 L35.3290101,4.23331269 C35.3290101,2.84624231 34.2395627,1.72181183 32.8925452,1.72181183 C31.5489576,1.72181183 30.4595102,2.84624231 30.4595102,4.23331269 L30.4595102,6.88216039 L25.6657913,1.93645773 C23.2955678,-0.507143805 19.1747682,-0.502830982 16.8103328,1.94077056 L0.71257838,18.5484584 C-0.23741894,19.5307869 -0.23741894,21.1204494 0.71257838,22.1010085 C1.66354038,23.083337 3.20724583,23.083337 4.15724315,22.1010085 L20.2532826,5.49332065 C20.7779624,4.9551024 21.7020205,4.9551024 22.223699,5.49166187 L38.3222038,22.1010085 C38.7999357,22.5921175 39.4221555,22.8366214 40.0443754,22.8366214 C40.6677743,22.8366214 41.2912803,22.5921175 41.7672973,22.1010085 C42.7177234,21.1204494 42.7177234,19.5307869 41.7668685,18.5484584 L41.7668685,18.5484584 Z" id="Fill-1"></path>
                    <path d="M22.0855351,10.2610917 C21.6178788,9.77894015 20.8608178,9.77894015 20.3944477,10.2610917 L6.23484645,24.8651966 C6.01125462,25.095435 5.8847741,25.4103817 5.8847741,25.7385987 L5.8847741,36.3907197 C5.8847741,38.8900562 7.84897369,40.9164197 10.2715044,40.9164197 L17.2817407,40.9164197 L17.2817407,29.7153537 L25.19642,29.7153537 L25.19642,40.9164197 L32.2071922,40.9164197 C34.6297229,40.9164197 36.5938153,38.8900562 36.5938153,36.3907197 L36.5938153,25.7385987 C36.5938153,25.4103817 36.4681923,25.095435 36.2438502,24.8651966 L22.0855351,10.2610917 Z" id="Fill-3"></path>
                </g>
            </g>
        </g>
    </g>
</svg>