<?xml version="1.0" encoding="UTF-8" standalone="no"?>
<svg width="200px" height="200px" viewBox="0 0 200 200" version="1.1" xmlns="http://www.w3.org/2000/svg" xmlns:xlink="http://www.w3.org/1999/xlink">
    <!-- Generator: Sketch 41 (35326) - http://www.bohemiancoding.com/sketch -->
    <title>Group 2</title>
    <desc>Created with Sketch.</desc>
    <defs></defs>
    <g id="home" stroke="none" stroke-width="1" fill="none" fill-rule="evenodd">
        <g id="homepage" transform="translate(-833.000000, -2802.000000)">
            <g id="Group-2" transform="translate(833.000000, 2802.000000)">
                <path d="M99.9799129,199.67804 C155.197294,199.67804 199.959826,154.978588 199.959826,99.8390199 C199.959826,44.6994518 155.197294,0 99.9799129,0 C44.7625317,0 0,44.6994518 0,99.8390199 C0,154.978588 44.7625317,199.67804 99.9799129,199.67804 Z" id="Oval-4-Copy" fill="#2B7E3E"></path>
                <path d="M69.7664145,105.446559 C69.7781333,105.411403 69.772274,105.382106 69.7488364,105.358669 C69.7253988,105.335231 69.7019615,105.323512 69.6785239,105.323512 L67.7097739,105.323512 C67.6746175,105.323512 67.6482506,105.335231 67.6306724,105.358669 C67.6130941,105.382106 67.6101645,105.411403 67.6218833,105.446559 C67.7273526,105.704373 67.8211016,105.968042 67.9031333,106.237575 C67.9265709,106.307888 67.9382895,106.378199 67.9382895,106.448512 C67.9382895,106.5657 67.8972743,106.682887 67.8152427,106.800075 C67.7097734,106.975857 67.5574312,107.093043 67.3582114,107.151637 C67.3464926,107.151637 67.3435629,107.154567 67.3494224,107.160426 L67.3582114,107.169215 L70.2234458,107.169215 L70.2234458,107.151637 C69.965632,107.093043 69.7781339,106.95242 69.6609458,106.729762 C69.5789141,106.600855 69.5378989,106.460232 69.5378989,106.307887 C69.5378989,106.214137 69.5554769,106.120388 69.5906333,106.026637 C69.6609461,105.815699 69.7195393,105.622341 69.7664145,105.446559 Z M71.5945395,113.708278 C71.8289157,113.88406 71.96368,114.112573 71.9988364,114.393825 L71.9988364,114.516872 C71.9988364,114.751248 71.9226653,114.962183 71.7703208,115.149684 L71.5945395,115.3782 C71.4187574,115.589138 71.1961034,115.694606 70.9265708,115.694606 L70.9089927,115.694606 C70.6511789,115.694606 70.4343842,115.600857 70.258602,115.413356 C70.2117268,115.366481 70.1648523,115.313747 70.117977,115.255153 C70.1062582,115.243434 70.0886803,115.240504 70.0652427,115.246364 C70.041805,115.252223 70.0300864,115.266872 70.0300864,115.290309 L70.0300864,117.522731 C70.0300864,117.815701 69.930478,118.061793 69.7312583,118.261012 C69.5320385,118.460232 69.2859473,118.55984 68.992977,118.55984 L68.5359458,118.55984 C68.2546944,118.55984 68.0115328,118.460232 67.8064536,118.261012 C67.6013745,118.061793 67.4988364,117.815701 67.4988364,117.522731 L67.4988364,115.712184 C67.4988364,115.688747 67.4900474,115.674098 67.4724692,115.668239 C67.454891,115.662379 67.4343834,115.665309 67.4109458,115.677028 C67.094538,116.110624 66.7605569,116.509057 66.4089927,116.87234 C66.2332105,117.048123 66.0222751,117.136012 65.7761802,117.136012 C65.7527425,117.136012 65.723446,117.130153 65.6882895,117.118434 C65.4187569,117.094997 65.1902436,116.97781 65.0027427,116.766872 C64.8972734,116.649684 64.797665,116.538357 64.7039145,116.432887 C64.5398512,116.257105 64.4578208,116.052029 64.4578208,115.817653 C64.4578208,115.524683 64.5632885,115.284451 64.774227,115.09695 C65.6062625,114.40554 66.3269584,113.602814 66.9363364,112.688747 C66.959774,112.665309 66.9627037,112.638942 66.9451255,112.609645 C66.9275473,112.580348 66.9070397,112.5657 66.883602,112.5657 L65.5476645,112.5657 C65.2664131,112.5657 65.0232515,112.466091 64.8181724,112.266872 C64.6130932,112.067652 64.5105552,111.821561 64.5105552,111.52859 L64.5105552,111.423122 C64.5105552,111.14187 64.6130932,110.898709 64.8181724,110.693629 C65.0232515,110.48855 65.2664131,110.386012 65.5476645,110.386012 L67.3582114,110.386012 C67.4519619,110.386012 67.4988364,110.344997 67.4988364,110.262965 L67.4988364,109.419215 C67.4988364,109.337184 67.4519619,109.296169 67.3582114,109.296169 L65.4949302,109.296169 C65.20196,109.296169 64.9558687,109.193631 64.7566489,108.988551 C64.5574292,108.783472 64.4578208,108.540311 64.4578208,108.259059 L64.4578208,108.206325 C64.4578208,107.925073 64.5574292,107.681912 64.7566489,107.476833 C64.9558687,107.271753 65.20196,107.169215 65.4949302,107.169215 L65.7761802,107.169215 C65.8699306,107.169215 65.9109458,107.1282 65.899227,107.046169 C65.8640706,106.83523 65.8113368,106.612576 65.7410239,106.3782 C65.7175863,106.296168 65.7058677,106.214138 65.7058677,106.132106 C65.7058677,105.99148 65.7410236,105.856716 65.8113364,105.727809 C65.9168057,105.528589 66.0808666,105.399684 66.3035239,105.34109 C66.3152427,105.34109 66.321102,105.338161 66.321102,105.332301 C66.321102,105.326442 66.3152427,105.323512 66.3035239,105.323512 L65.7058677,105.323512 C65.4246163,105.323512 65.1814546,105.220974 64.9763755,105.015895 C64.7712963,104.810816 64.6687583,104.567654 64.6687583,104.286403 L64.6687583,104.251247 C64.6687583,103.958276 64.7712963,103.712185 64.9763755,103.512965 C65.1814546,103.313746 65.4246163,103.214137 65.7058677,103.214137 L67.3582114,103.214137 C67.4519619,103.214137 67.4988364,103.167263 67.4988364,103.073512 L67.4988364,102.72195 C67.4988364,102.42898 67.6013745,102.182888 67.8064536,101.983669 C68.0115328,101.784449 68.2546944,101.68484 68.5359458,101.68484 L68.992977,101.68484 C69.2859473,101.68484 69.5320385,101.784449 69.7312583,101.983669 C69.930478,102.182888 70.0300864,102.42898 70.0300864,102.72195 L70.0300864,103.073512 C70.0300864,103.167263 70.0769609,103.214137 70.1707114,103.214137 L71.8230552,103.214137 C72.1160254,103.214137 72.3621167,103.313746 72.5613364,103.512965 C72.7605562,103.712185 72.8601645,103.958276 72.8601645,104.251247 L72.8601645,104.286403 C72.8601645,104.567654 72.7605562,104.810816 72.5613364,105.015895 C72.3621167,105.220974 72.1160254,105.323512 71.8230552,105.323512 L71.4890708,105.323512 L71.4890708,105.34109 C71.6648529,105.364528 71.7937579,105.455347 71.8757895,105.613551 C71.9578212,105.771755 71.9636805,105.932886 71.8933677,106.09695 C71.6589915,106.647734 71.5183679,106.964137 71.4714927,107.046169 C71.4597739,107.081325 71.4627035,107.110622 71.4802817,107.134059 C71.4978599,107.157497 71.5242269,107.169215 71.5593833,107.169215 L71.9285239,107.169215 C72.2214941,107.169215 72.4675854,107.271753 72.6668052,107.476833 C72.8660249,107.681912 72.9656333,107.925073 72.9656333,108.206325 L72.9656333,108.259059 C72.9656333,108.540311 72.8660249,108.783472 72.6668052,108.988551 C72.4675854,109.193631 72.2214941,109.296169 71.9285239,109.296169 L70.1707114,109.296169 C70.0769609,109.296169 70.0300864,109.337184 70.0300864,109.419215 L70.0300864,110.262965 C70.0300864,110.344997 70.0769609,110.386012 70.1707114,110.386012 L71.7527427,110.386012 C72.0339941,110.386012 72.2771557,110.48855 72.4822349,110.693629 C72.687314,110.898709 72.789852,111.14187 72.789852,111.423122 L72.789852,111.52859 C72.789852,111.821561 72.687314,112.067652 72.4822349,112.266872 C72.2771557,112.466091 72.0339941,112.5657 71.7527427,112.5657 L70.0476645,112.5657 C70.0359457,112.5657 70.0300864,112.568629 70.0300864,112.574489 C70.0300864,112.580348 70.0359457,112.589137 70.0476645,112.600856 C70.3640724,112.800076 70.8796922,113.169213 71.5945395,113.708278 Z M76.0418052,105.200465 C75.9597735,105.212184 75.9187583,105.264918 75.9187583,105.358669 L75.9187583,107.239528 C75.9187583,107.32156 75.9656328,107.362575 76.0593833,107.362575 L80.2781333,107.362575 C80.5711035,107.362575 80.8171948,107.465113 81.0164145,107.670192 C81.2156343,107.875271 81.3152427,108.118433 81.3152427,108.399684 L81.3152427,108.751247 C81.3152427,109.032498 81.2156343,109.27566 81.0164145,109.480739 C80.8171948,109.685818 80.5711035,109.788356 80.2781333,109.788356 L79.9265708,109.788356 C79.8328203,109.788356 79.7859458,109.829371 79.7859458,109.911403 L79.7859458,117.452419 C79.7859458,117.745389 79.6863374,117.99148 79.4871177,118.1907 C79.2878979,118.38992 79.0418066,118.489528 78.7488364,118.489528 L78.2918052,118.489528 C78.0105538,118.489528 77.7673921,118.38992 77.562313,118.1907 C77.3572338,117.99148 77.2546958,117.745389 77.2546958,117.452419 L77.2546958,109.911403 C77.2546958,109.829371 77.2078213,109.788356 77.1140708,109.788356 L76.0593833,109.788356 C75.9656328,109.788356 75.9187583,109.829371 75.9187583,109.911403 C75.8367266,113.298139 75.139468,115.923112 73.8269614,117.786403 C73.6746169,117.997341 73.4754001,118.102809 73.2293052,118.102809 L73.1941489,118.102809 C72.9363351,118.09109 72.7136811,117.985623 72.5261802,117.786403 C72.3972733,117.669215 72.2683683,117.546169 72.1394614,117.417262 C71.9285229,117.24148 71.8054772,117.018826 71.7703208,116.749294 C71.758602,116.6907 71.7527427,116.632106 71.7527427,116.573512 C71.7527427,116.374293 71.8113358,116.180935 71.9285239,115.993434 C72.537902,115.067648 72.9421948,114.039338 73.1414145,112.908473 C73.3406343,111.777608 73.4402427,110.526644 73.4402427,109.155544 L73.4402427,103.899684 C73.4402427,103.64187 73.5457104,103.436794 73.7566489,103.28445 C73.8972746,103.167262 74.0496168,103.108669 74.2136802,103.108669 C74.283993,103.108669 74.3601641,103.120387 74.4421958,103.143825 L74.7410239,103.231715 C74.8230556,103.255153 74.905086,103.255153 74.9871177,103.231715 C76.252749,102.89187 77.3543005,102.516874 78.2918052,102.106715 C78.5144625,102.012965 78.7371166,101.96609 78.9597739,101.96609 C79.0418056,101.96609 79.1179767,101.97195 79.1882895,101.983669 C79.5046974,102.030544 79.7742259,102.153589 79.9968833,102.352809 L80.5593833,102.862575 C80.700009,102.991482 80.7703208,103.149683 80.7703208,103.337184 L80.7703208,103.460231 C80.7234456,103.706326 80.5886813,103.870387 80.3660239,103.952419 C79.1824242,104.409452 77.7410324,104.825464 76.0418052,105.200465 Z M86.7468833,105.182887 C86.7586021,105.15945 86.7556724,105.133083 86.7380942,105.103786 C86.720516,105.074489 86.6941491,105.05984 86.6589927,105.05984 L85.9734458,105.05984 C85.8796953,105.05984 85.8152428,105.100856 85.7800864,105.182887 C85.6628983,105.464139 85.5398527,105.721949 85.4109458,105.956325 C85.399227,105.979762 85.4021566,106.006129 85.4197349,106.035426 C85.4373131,106.064723 85.4578207,106.079372 85.4812583,106.079372 L86.2195395,106.079372 C86.3015712,106.079372 86.3601644,106.038356 86.3953208,105.956325 C86.5476653,105.639917 86.6648516,105.382107 86.7468833,105.182887 Z M88.2058677,108.856715 C88.2996181,108.856715 88.3464927,108.8157 88.3464927,108.733669 L88.3464927,108.259059 C88.3464927,108.165309 88.2996181,108.118434 88.2058677,108.118434 L87.8191489,108.118434 C87.7371173,108.118434 87.696102,108.165309 87.696102,108.259059 L87.696102,108.733669 C87.696102,108.8157 87.7371173,108.856715 87.8191489,108.856715 L88.2058677,108.856715 Z M88.2058677,111.511012 C88.2996181,111.511012 88.3464927,111.464138 88.3464927,111.370387 L88.3464927,110.8782 C88.3464927,110.796168 88.2996181,110.755153 88.2058677,110.755153 L87.8191489,110.755153 C87.7371173,110.755153 87.696102,110.796168 87.696102,110.8782 L87.696102,111.370387 C87.696102,111.464138 87.7371173,111.511012 87.8191489,111.511012 L88.2058677,111.511012 Z M85.4285239,110.755153 C85.3464923,110.755153 85.305477,110.796168 85.305477,110.8782 L85.305477,111.370387 C85.305477,111.464138 85.3464923,111.511012 85.4285239,111.511012 L85.7976645,111.511012 C85.891415,111.511012 85.9382895,111.464138 85.9382895,111.370387 L85.9382895,110.8782 C85.9382895,110.796168 85.891415,110.755153 85.7976645,110.755153 L85.4285239,110.755153 Z M85.4285239,108.118434 C85.3464923,108.118434 85.305477,108.165309 85.305477,108.259059 L85.305477,108.733669 C85.305477,108.8157 85.3464923,108.856715 85.4285239,108.856715 L85.7976645,108.856715 C85.891415,108.856715 85.9382895,108.8157 85.9382895,108.733669 L85.9382895,108.259059 C85.9382895,108.165309 85.891415,108.118434 85.7976645,108.118434 L85.4285239,108.118434 Z M84.2683677,113.567653 C83.9753975,113.567653 83.7293062,113.465115 83.5300864,113.260036 C83.3308667,113.054957 83.2312583,112.811795 83.2312583,112.530544 L83.2312583,107.766872 C83.2312583,107.68484 83.2019617,107.608669 83.1433677,107.538356 C83.0847736,107.491481 83.0261805,107.438747 82.9675864,107.380153 C82.7566479,107.204371 82.6336022,106.981717 82.5984458,106.712184 C82.586727,106.65359 82.5808677,106.594997 82.5808677,106.536403 C82.5808677,106.325464 82.6394608,106.132107 82.7566489,105.956325 C83.4363398,104.960226 83.9695376,103.800081 84.3562583,102.475856 C84.43829,102.194605 84.5964915,101.966091 84.8308677,101.790309 C85.0300874,101.661402 85.2410228,101.59695 85.4636802,101.59695 C85.5105554,101.59695 85.5632892,101.602809 85.6218833,101.614528 L85.8855552,101.649684 C86.1668066,101.684841 86.3836013,101.819605 86.5359458,102.053981 C86.6414151,102.206326 86.6941489,102.364527 86.6941489,102.52859 C86.6941489,102.610622 86.6824303,102.698512 86.6589927,102.792262 L86.5886802,102.985622 C86.5886802,103.020778 86.5974691,103.053004 86.6150474,103.082301 C86.6326256,103.111598 86.6589925,103.126247 86.6941489,103.126247 L87.8015708,103.126247 C87.8367272,103.126247 87.8718831,103.120387 87.9070395,103.108669 C87.9890712,103.085231 88.0711016,103.073512 88.1531333,103.073512 C88.3171966,103.073512 88.4695388,103.120387 88.6101645,103.214137 L88.9968833,103.495387 C89.2078218,103.636013 89.3425861,103.82937 89.4011802,104.075465 C89.4246178,104.157497 89.4363364,104.239528 89.4363364,104.321559 C89.4363364,104.473904 89.4011805,104.620387 89.3308677,104.761012 C89.1199291,105.171171 88.9089937,105.569604 88.6980552,105.956325 C88.6863364,105.979762 88.6863364,106.006129 88.6980552,106.035426 C88.709774,106.064723 88.7332112,106.079372 88.7683677,106.079372 L89.4890708,106.079372 C89.7703222,106.079372 90.0134838,106.17898 90.218563,106.3782 C90.4236421,106.57742 90.5261802,106.823511 90.5261802,107.116481 L90.5261802,112.530544 C90.5261802,112.811795 90.4236421,113.054957 90.218563,113.260036 C90.0134838,113.465115 89.7703222,113.567653 89.4890708,113.567653 L84.2683677,113.567653 Z M84.3035239,117.786403 C84.1863358,118.020779 83.9929784,118.173121 83.7234458,118.243434 C83.6414141,118.266872 83.5593837,118.27859 83.477352,118.27859 C83.3015699,118.27859 83.1316497,118.231716 82.9675864,118.137965 C82.7449291,118.009059 82.6043055,117.815701 82.5457114,117.557887 C82.5222738,117.464137 82.5105552,117.376247 82.5105552,117.294215 C82.5105552,117.130152 82.5457111,116.97781 82.6160239,116.837184 C82.8621189,116.2864 83.049617,115.618438 83.1785239,114.833278 C83.2253992,114.587183 83.3484448,114.399685 83.5476645,114.270778 C83.6882902,114.165309 83.8347732,114.112575 83.9871177,114.112575 C84.0574305,114.112575 84.1277423,114.124293 84.1980552,114.147731 C84.455869,114.206325 84.6550857,114.346949 84.7957114,114.569606 C84.9128995,114.745388 84.9714927,114.927027 84.9714927,115.114528 L84.9714927,115.272731 C84.8074293,116.315705 84.5847753,117.153587 84.3035239,117.786403 Z M85.1824302,114.886012 C85.1824302,114.686793 85.2468826,114.505154 85.3757895,114.34109 C85.5164152,114.165308 85.6980541,114.0657 85.9207114,114.042262 C85.9558678,114.030543 85.9910237,114.024684 86.0261802,114.024684 C86.2136811,114.024684 86.3836013,114.083277 86.5359458,114.200465 C86.7117279,114.341091 86.8113363,114.528589 86.8347739,114.762965 C86.9050868,115.419219 86.946102,116.09304 86.9578208,116.78445 L86.9578208,116.802028 C86.9578208,117.036404 86.8757904,117.24148 86.711727,117.417262 C86.5476637,117.604763 86.3425876,117.71609 86.0964927,117.751247 L85.9910239,117.751247 C85.8152418,117.751247 85.6511809,117.686794 85.4988364,117.557887 C85.3347731,117.393824 85.2527427,117.200467 85.2527427,116.977809 L85.2527427,116.819606 L85.1824302,114.886012 Z M87.1160239,114.973903 C87.1043051,114.90359 87.0984458,114.839138 87.0984458,114.780544 C87.0984458,114.639918 87.1336017,114.511013 87.2039145,114.393825 C87.3211026,114.206324 87.4793042,114.094997 87.6785239,114.05984 C87.7488368,114.048122 87.8132892,114.042262 87.8718833,114.042262 C88.0242278,114.042262 88.17657,114.083278 88.3289145,114.165309 C88.5164155,114.282497 88.6453204,114.446558 88.7156333,114.657497 C88.8914154,115.290312 89.032039,115.923119 89.1375083,116.555934 C89.1492271,116.602809 89.1550864,116.649684 89.1550864,116.696559 C89.1550864,116.88406 89.0964933,117.05398 88.9793052,117.206325 C88.8386795,117.405545 88.6511813,117.52859 88.4168052,117.575465 C88.3582111,117.587184 88.299618,117.593044 88.2410239,117.593044 C88.0886794,117.593044 87.9480558,117.546169 87.8191489,117.452419 C87.6433668,117.311793 87.5378991,117.130154 87.5027427,116.907497 C87.420711,116.2864 87.291806,115.641875 87.1160239,114.973903 Z M89.0320395,114.956325 C88.9851643,114.850856 88.961727,114.751247 88.961727,114.657497 C88.961727,114.552027 88.9851643,114.44656 89.0320395,114.34109 C89.1140712,114.141871 89.2605541,114.007106 89.4714927,113.936794 C89.5769619,113.889918 89.6824296,113.866481 89.7878989,113.866481 C89.8933682,113.866481 90.0046952,113.889918 90.1218833,113.936794 C90.3328218,114.030544 90.4851641,114.182886 90.5789145,114.393825 C90.8484471,114.979765 91.0711012,115.571556 91.2468833,116.169215 C91.2703209,116.251247 91.2820395,116.339137 91.2820395,116.432887 C91.2820395,116.573513 91.2468836,116.714137 91.1765708,116.854762 C91.0593827,117.07742 90.8777439,117.235621 90.6316489,117.329372 C90.5496173,117.364528 90.4617275,117.382106 90.367977,117.382106 C90.250789,117.382106 90.1336026,117.352809 90.0164145,117.294215 C89.8289136,117.177027 89.705868,117.007107 89.6472739,116.78445 C89.4949294,116.198509 89.2898533,115.58914 89.0320395,114.956325 Z M98.3484458,112.055934 C98.641416,112.055934 98.8875073,112.155543 99.086727,112.354762 C99.2859468,112.553982 99.3855552,112.800073 99.3855552,113.093044 L99.3855552,113.286403 C99.3855552,113.567654 99.2859468,113.810816 99.086727,114.015895 C98.8875073,114.220974 98.641416,114.323512 98.3484458,114.323512 L96.3445395,114.323512 C96.2507891,114.323512 96.2039145,114.364528 96.2039145,114.446559 L96.2039145,117.505153 C96.2039145,117.798123 96.1043062,118.044214 95.9050864,118.243434 C95.7058667,118.442654 95.4597754,118.542262 95.1668052,118.542262 L94.7097739,118.542262 C94.4168037,118.542262 94.1707124,118.442654 93.9714927,118.243434 C93.7722729,118.044214 93.6726645,117.798123 93.6726645,117.505153 L93.6726645,114.446559 C93.6726645,114.364528 93.62579,114.323512 93.5320395,114.323512 L91.8269614,114.323512 C91.54571,114.323512 91.3025484,114.220974 91.0974692,114.015895 C90.8923901,113.810816 90.789852,113.567654 90.789852,113.286403 L90.789852,113.093044 C90.789852,112.800073 90.8923901,112.553982 91.0974692,112.354762 C91.3025484,112.155543 91.54571,112.055934 91.8269614,112.055934 L93.5320395,112.055934 C93.62579,112.055934 93.6726645,112.00906 93.6726645,111.915309 L93.6726645,110.948512 C93.6726645,110.866481 93.62579,110.825465 93.5320395,110.825465 L92.2664145,110.825465 C91.9734443,110.825465 91.727353,110.722927 91.5281333,110.517848 C91.3289135,110.312769 91.2293052,110.069607 91.2293052,109.788356 L91.2293052,109.630153 C91.2293052,109.348902 91.3289135,109.10574 91.5281333,108.900661 C91.727353,108.695582 91.9734443,108.593044 92.2664145,108.593044 L93.5320395,108.593044 C93.62579,108.593044 93.6726645,108.546169 93.6726645,108.452419 L93.6726645,107.608669 C93.6726645,107.514918 93.62579,107.468044 93.5320395,107.468044 L91.8972739,107.468044 C91.6160225,107.468044 91.3728609,107.368435 91.1677817,107.169215 C90.9627026,106.969996 90.8601645,106.723904 90.8601645,106.430934 L90.8601645,106.237575 C90.8601645,105.956323 90.9627026,105.713162 91.1677817,105.508083 C91.3728609,105.303003 91.6160225,105.200465 91.8972739,105.200465 L91.9324302,105.200465 C92.0261806,105.200465 92.0613365,105.15945 92.0378989,105.077419 C91.8972732,104.491478 91.6804785,103.864531 91.3875083,103.196559 C91.3289142,103.055933 91.2996177,102.921169 91.2996177,102.792262 C91.2996177,102.675074 91.3230549,102.552029 91.3699302,102.423122 C91.4753994,102.177027 91.6570383,102.007107 91.914852,101.913356 L92.0906333,101.843044 C92.231259,101.796168 92.3718826,101.772731 92.5125083,101.772731 C92.6648528,101.772731 92.8113357,101.802028 92.9519614,101.860622 C93.2332128,101.966091 93.4382889,102.14773 93.5671958,102.405544 C93.7898532,102.862577 93.9773513,103.319604 94.1296958,103.776637 C94.176571,103.893825 94.2000083,104.011012 94.2000083,104.1282 C94.2000083,104.280544 94.1589931,104.432887 94.0769614,104.585231 C93.9480545,104.854764 93.7429784,105.042262 93.461727,105.147731 L93.4089927,105.165309 C93.3972739,105.165309 93.3943442,105.171168 93.4002036,105.182887 C93.406063,105.194606 93.414852,105.200465 93.4265708,105.200465 L96.6257895,105.200465 C96.6375083,105.200465 96.6462973,105.197536 96.6521567,105.191676 C96.6580161,105.185817 96.6550865,105.182887 96.6433677,105.182887 L96.3796958,105.112575 C96.121882,105.042262 95.9285246,104.88406 95.7996177,104.637965 C95.7293048,104.49734 95.6941489,104.356716 95.6941489,104.21609 C95.6941489,104.110621 95.7175862,103.999294 95.7644614,103.882106 C95.9402435,103.413354 96.0925858,102.944608 96.2214927,102.475856 C96.3035243,102.194605 96.4675852,101.97781 96.7136802,101.825465 C96.8894623,101.708277 97.0711011,101.649684 97.258602,101.649684 C97.3406337,101.649684 97.4168048,101.661403 97.4871177,101.68484 L98.1199302,101.825465 C98.3894628,101.884059 98.5828202,102.030542 98.7000083,102.264919 C98.7703211,102.393825 98.805477,102.516871 98.805477,102.634059 C98.805477,102.751247 98.7761805,102.868434 98.7175864,102.985622 C98.3191469,103.876251 97.9851659,104.579369 97.7156333,105.094997 C97.6921957,105.118434 97.689266,105.141872 97.7068442,105.165309 C97.7244224,105.188747 97.7507894,105.200465 97.7859458,105.200465 L97.9441489,105.200465 C98.2254003,105.200465 98.468562,105.303003 98.6736411,105.508083 C98.8787203,105.713162 98.9812583,105.956323 98.9812583,106.237575 L98.9812583,106.430934 C98.9812583,106.723904 98.8787203,106.969996 98.6736411,107.169215 C98.468562,107.368435 98.2254003,107.468044 97.9441489,107.468044 L96.3445395,107.468044 C96.2507891,107.468044 96.2039145,107.514918 96.2039145,107.608669 L96.2039145,108.452419 C96.2039145,108.546169 96.2507891,108.593044 96.3445395,108.593044 L97.6628989,108.593044 C97.9441503,108.593044 98.187312,108.695582 98.3923911,108.900661 C98.5974703,109.10574 98.7000083,109.348902 98.7000083,109.630153 L98.7000083,109.788356 C98.7000083,110.069607 98.5974703,110.312769 98.3923911,110.517848 C98.187312,110.722927 97.9441503,110.825465 97.6628989,110.825465 L96.3445395,110.825465 C96.2507891,110.825465 96.2039145,110.866481 96.2039145,110.948512 L96.2039145,111.915309 C96.2039145,112.00906 96.2507891,112.055934 96.3445395,112.055934 L98.3484458,112.055934 Z M112.358211,108.34695 C112.451962,108.34695 112.498836,108.300075 112.498836,108.206325 L112.498836,107.889919 C112.498836,107.807887 112.451962,107.766872 112.358211,107.766872 L107.840633,107.766872 C107.758602,107.766872 107.717586,107.807887 107.717586,107.889919 L107.717586,108.206325 C107.717586,108.300075 107.758602,108.34695 107.840633,108.34695 L112.358211,108.34695 Z M112.358211,110.614528 C112.451962,110.614528 112.498836,110.567653 112.498836,110.473903 L112.498836,110.139919 C112.498836,110.057887 112.451962,110.016872 112.358211,110.016872 L107.840633,110.016872 C107.758602,110.016872 107.717586,110.057887 107.717586,110.139919 L107.717586,110.473903 C107.717586,110.567653 107.758602,110.614528 107.840633,110.614528 L112.358211,110.614528 Z M112.358211,112.882106 C112.451962,112.882106 112.498836,112.835232 112.498836,112.741481 L112.498836,112.407497 C112.498836,112.325465 112.451962,112.28445 112.358211,112.28445 L107.840633,112.28445 C107.758602,112.28445 107.717586,112.325465 107.717586,112.407497 L107.717586,112.741481 C107.717586,112.835232 107.758602,112.882106 107.840633,112.882106 L112.358211,112.882106 Z M105.239071,106.993434 C105.239071,106.712183 105.341609,106.469021 105.546688,106.263942 C105.751767,106.058863 105.994929,105.956325 106.27618,105.956325 L107.137508,105.956325 C107.231259,105.956325 107.283993,105.91531 107.295711,105.833278 C107.319149,105.657496 107.342586,105.505154 107.366024,105.376247 C107.377743,105.282496 107.342587,105.235622 107.260555,105.235622 L101.77618,105.235622 C101.494929,105.235622 101.251767,105.136013 101.046688,104.936794 C100.841609,104.737574 100.739071,104.491483 100.739071,104.198512 L100.739071,103.882106 C100.739071,103.600855 100.841609,103.357693 101.046688,103.152614 C101.251767,102.947535 101.494929,102.844997 101.77618,102.844997 L107.506649,102.844997 C107.588681,102.844997 107.632625,102.801052 107.638485,102.713161 C107.644344,102.62527 107.653133,102.53445 107.664852,102.4407 C107.676571,102.159448 107.787898,101.919216 107.998836,101.719997 C108.198056,101.532496 108.438288,101.438747 108.71954,101.438747 L108.754696,101.438747 L109.774227,101.456325 C110.04376,101.468044 110.272273,101.579371 110.459774,101.790309 C110.6004,101.954372 110.670711,102.141871 110.670711,102.352809 C110.670711,102.399684 110.664852,102.452418 110.653133,102.511012 L110.617977,102.72195 C110.594539,102.803981 110.629695,102.844997 110.723446,102.844997 L115.83868,102.844997 C116.119932,102.844997 116.363093,102.947535 116.568172,103.152614 C116.773252,103.357693 116.87579,103.600855 116.87579,103.882106 L116.87579,104.198512 C116.87579,104.491483 116.773252,104.737574 116.568172,104.936794 C116.363093,105.136013 116.119932,105.235622 115.83868,105.235622 L110.266415,105.235622 C110.184383,105.235622 110.131649,105.282496 110.108211,105.376247 L110.002743,105.833278 C109.991024,105.91531 110.02618,105.956325 110.108211,105.956325 L114.045711,105.956325 C114.338682,105.956325 114.584773,106.058863 114.783993,106.263942 C114.983212,106.469021 115.082821,106.712183 115.082821,106.993434 L115.082821,113.637965 C115.082821,113.930936 114.983212,114.177027 114.783993,114.376247 C114.584773,114.575466 114.338682,114.675075 114.045711,114.675075 L106.27618,114.675075 C105.994929,114.675075 105.751767,114.575466 105.546688,114.376247 C105.341609,114.177027 105.239071,113.930936 105.239071,113.637965 L105.239071,106.993434 Z M116.049618,115.430934 C116.342588,115.430934 116.588679,115.533472 116.787899,115.738551 C116.987119,115.943631 117.086727,116.186792 117.086727,116.468044 L117.086727,116.802028 C117.086727,117.094998 116.987119,117.341089 116.787899,117.540309 C116.588679,117.739529 116.342588,117.839137 116.049618,117.839137 L104.184383,117.839137 C104.125789,117.839137 104.096493,117.868434 104.096493,117.927028 C104.096493,118.114529 104.029111,118.27566 103.894344,118.410426 C103.759578,118.545193 103.598447,118.612575 103.410946,118.612575 L102.53204,118.612575 C102.250788,118.612575 102.007627,118.512966 101.802547,118.313747 C101.597468,118.114527 101.49493,117.868436 101.49493,117.575465 L101.49493,107.573512 C101.49493,107.292261 101.597468,107.049099 101.802547,106.84402 C102.007627,106.638941 102.250788,106.536403 102.53204,106.536403 L103.059383,106.536403 C103.340635,106.536403 103.583796,106.638941 103.788875,106.84402 C103.993955,107.049099 104.096493,107.292261 104.096493,107.573512 L104.096493,115.307887 C104.096493,115.389919 104.137508,115.430934 104.21954,115.430934 L116.049618,115.430934 Z M135.069149,109.401637 C135.069149,109.694608 134.966611,109.940699 134.761532,110.139919 C134.556453,110.339138 134.313291,110.438747 134.03204,110.438747 L131.061336,110.438747 C131.037899,110.438747 131.017391,110.453395 130.999813,110.482692 C130.982235,110.511989 130.979305,110.538356 130.991024,110.561794 C131.694152,111.698518 132.737111,112.518822 134.11993,113.022731 C134.342588,113.104763 134.48907,113.257105 134.559383,113.479762 C134.571102,113.538356 134.576961,113.602809 134.576961,113.673122 C134.576961,113.813747 134.530087,113.948512 134.436336,114.077419 C134.295711,114.253201 134.160946,114.434839 134.03204,114.62234 C133.856257,114.880154 133.627744,115.055934 133.346493,115.149684 C133.217586,115.196559 133.09454,115.219997 132.977352,115.219997 C132.825008,115.219997 132.672665,115.1907 132.520321,115.132106 C131.219533,114.522728 130.176575,113.585237 129.391415,112.319606 C129.379696,112.296168 129.359188,112.28445 129.329891,112.28445 C129.300594,112.28445 129.274227,112.296168 129.25079,112.319606 C128.535942,113.409455 127.481265,114.323509 126.086727,115.061794 C125.910945,115.143825 125.735165,115.18484 125.559383,115.18484 C125.453914,115.18484 125.348446,115.173122 125.242977,115.149684 C124.961726,115.079371 124.715634,114.927029 124.504696,114.692653 C124.399227,114.563746 124.2879,114.4407 124.170711,114.323512 C124.041805,114.182887 123.977352,114.030544 123.977352,113.866481 C123.977352,113.819606 123.983211,113.772731 123.99493,113.725856 C124.030087,113.49148 124.153132,113.327419 124.364071,113.233669 C125.899235,112.565696 126.895319,111.67508 127.352352,110.561794 C127.364071,110.538356 127.361141,110.511989 127.343563,110.482692 C127.325985,110.453395 127.299618,110.438747 127.264461,110.438747 L124.522274,110.438747 C124.229304,110.438747 123.983212,110.339138 123.783993,110.139919 C123.584773,109.940699 123.485165,109.694608 123.485165,109.401637 L123.485165,109.155544 C123.485165,108.874292 123.584773,108.631131 123.783993,108.426051 C123.983212,108.220972 124.229304,108.118434 124.522274,108.118434 L127.56329,108.118434 C127.645321,108.118434 127.686336,108.077419 127.686336,107.995387 L127.686336,106.9407 C127.686336,106.858668 127.645321,106.817653 127.56329,106.817653 L125.155086,106.817653 C124.873835,106.817653 124.630673,106.715115 124.425594,106.510036 C124.220515,106.304957 124.117977,106.061795 124.117977,105.780544 L124.117977,105.569606 C124.117977,105.276636 124.220515,105.030545 124.425594,104.831325 C124.630673,104.632105 124.873835,104.532497 125.155086,104.532497 L125.506649,104.532497 C125.541805,104.532497 125.568172,104.517848 125.58575,104.488551 C125.603329,104.459254 125.606258,104.432887 125.59454,104.40945 C125.430476,104.034448 125.237119,103.659452 125.014461,103.28445 C124.93243,103.132105 124.891415,102.979763 124.891415,102.827419 C124.891415,102.733668 124.908992,102.639919 124.944149,102.546169 C125.026181,102.288355 125.190241,102.106716 125.436336,102.001247 L125.717586,101.895778 C125.88165,101.825465 126.05157,101.790309 126.227352,101.790309 C126.34454,101.790309 126.467586,101.807887 126.596493,101.843044 C126.889463,101.925075 127.117976,102.089136 127.28204,102.335231 C127.528135,102.710233 127.733211,103.067651 127.897274,103.407497 C127.955868,103.512966 127.985165,103.624293 127.985165,103.741481 C127.985165,103.835232 127.961727,103.93484 127.914852,104.040309 C127.821102,104.239529 127.668759,104.386012 127.457821,104.479762 L127.457821,104.506129 C127.457821,104.523708 127.46368,104.532497 127.475399,104.532497 L130.780086,104.532497 C130.791805,104.532497 130.797665,104.526637 130.797665,104.514919 C130.797665,104.5032 130.791805,104.49734 130.780086,104.49734 C130.592585,104.427028 130.46661,104.298123 130.402157,104.110622 C130.337703,103.923121 130.352352,103.741482 130.446102,103.5657 C130.668759,103.190698 130.867976,102.809842 131.043758,102.423122 C131.172665,102.153589 131.371882,101.954372 131.641415,101.825465 C131.793759,101.755153 131.951961,101.719997 132.116024,101.719997 C132.221493,101.719997 132.33282,101.737575 132.450008,101.772731 L133.135555,101.96609 C133.393369,102.048122 133.563289,102.212183 133.645321,102.458278 C133.680477,102.54031 133.698055,102.628199 133.698055,102.72195 C133.698055,102.862576 133.651181,103.003199 133.55743,103.143825 C133.229304,103.612577 132.91876,104.040307 132.62579,104.427028 C132.614071,104.438747 132.614071,104.459254 132.62579,104.488551 C132.637508,104.517848 132.655086,104.532497 132.678524,104.532497 L133.381649,104.532497 C133.674619,104.532497 133.92071,104.632105 134.11993,104.831325 C134.31915,105.030545 134.418758,105.276636 134.418758,105.569606 L134.418758,105.780544 C134.418758,106.061795 134.31915,106.304957 134.11993,106.510036 C133.92071,106.715115 133.674619,106.817653 133.381649,106.817653 L130.446102,106.817653 C130.36407,106.817653 130.323055,106.858668 130.323055,106.9407 L130.323055,107.995387 C130.323055,108.077419 130.36407,108.118434 130.446102,108.118434 L134.03204,108.118434 C134.313291,108.118434 134.556453,108.220972 134.761532,108.426051 C134.966611,108.631131 135.069149,108.874292 135.069149,109.155544 L135.069149,109.401637 Z M122.658993,103.794215 C122.846494,103.981716 122.940243,104.198511 122.940243,104.444606 C122.940243,104.468044 122.934383,104.49734 122.922665,104.532497 C122.899227,104.813748 122.776181,105.048121 122.553524,105.235622 L122.061336,105.639919 C121.873835,105.792263 121.668759,105.868434 121.446102,105.868434 C121.410946,105.868434 121.36993,105.862575 121.323055,105.850856 C121.053523,105.827418 120.825009,105.704373 120.637508,105.481715 C120.250788,105.04812 119.787902,104.596952 119.248836,104.1282 C119.049617,103.952418 118.950008,103.735623 118.950008,103.477809 C118.950008,103.196558 119.055476,102.973904 119.266415,102.80984 L119.600399,102.546169 C119.834775,102.358668 120.104304,102.259059 120.408993,102.24734 L120.444149,102.24734 C120.737119,102.24734 120.994929,102.341089 121.217586,102.52859 C121.780089,102.973905 122.260553,103.395776 122.658993,103.794215 Z M121.903133,108.452419 C122.184385,108.452419 122.427546,108.552027 122.632625,108.751247 C122.837705,108.950466 122.940243,109.196558 122.940243,109.489528 L122.940243,113.97195 C122.940243,114.0657 122.96368,114.147731 123.010555,114.218044 C123.631652,115.155548 124.826953,115.659449 126.596493,115.729762 C127.475403,115.776638 128.377738,115.800075 129.303524,115.800075 C130.955876,115.800075 132.672656,115.741482 134.453915,115.624294 L134.506649,115.624294 C134.717587,115.624294 134.887508,115.712183 135.016415,115.887965 C135.110165,116.005154 135.15704,116.134058 135.15704,116.274684 C135.15704,116.344997 135.139462,116.421168 135.104305,116.5032 C135.033992,116.737576 134.963681,116.966089 134.893368,117.188747 C134.811336,117.493436 134.653134,117.745386 134.418758,117.944606 C134.184382,118.143826 133.920713,118.243434 133.627743,118.243434 C132.256642,118.302028 130.973452,118.331325 129.778133,118.331325 C128.617971,118.331325 127.539857,118.307888 126.543758,118.261012 C125.453909,118.214137 124.542785,118.055936 123.81036,117.786403 C123.077934,117.51687 122.43048,117.065703 121.867977,116.432887 C121.809383,116.362574 121.75079,116.356715 121.692196,116.415309 C121.129693,116.907499 120.608214,117.352807 120.127743,117.751247 C119.975398,117.868435 119.811337,117.927028 119.635555,117.927028 C119.565242,117.927028 119.50079,117.921169 119.442196,117.90945 C119.184382,117.850856 118.996884,117.698514 118.879696,117.452419 L118.492977,116.608669 C118.422664,116.456324 118.387508,116.298122 118.387508,116.134059 C118.387508,116.02859 118.405086,115.911404 118.440243,115.782497 C118.533993,115.512964 118.703913,115.302029 118.950008,115.149684 C119.430479,114.856714 119.869928,114.569607 120.268368,114.288356 C120.338681,114.229762 120.373836,114.15945 120.373836,114.077419 L120.373836,110.983669 C120.373836,110.901637 120.332821,110.860622 120.25079,110.860622 L119.565243,110.860622 C119.283991,110.860622 119.04083,110.758084 118.83575,110.553004 C118.630671,110.347925 118.528133,110.104764 118.528133,109.823512 L118.528133,109.489528 C118.528133,109.196558 118.630671,108.950466 118.83575,108.751247 C119.04083,108.552027 119.283991,108.452419 119.565243,108.452419 L121.903133,108.452419 Z" id="新鮮直送" fill="#FFFFFF"></path>
                <path d="M61.9391674,132.449717 C61.8389065,132.449717 61.7887768,132.507009 61.7887768,132.621592 L61.7887768,134.555186 C61.7887768,134.66977 61.8389065,134.727061 61.9391674,134.727061 L64.9899487,134.727061 C65.0902096,134.727061 65.1403393,134.66977 65.1403393,134.555186 L65.1403393,132.621592 C65.1403393,132.507009 65.0902096,132.449717 64.9899487,132.449717 L61.9391674,132.449717 Z M67.0094799,128.367686 C67.0381259,128.33904 67.0417066,128.310395 67.0202221,128.281749 C66.9987376,128.253103 66.9736728,128.23878 66.9450268,128.23878 L63.4215893,128.23878 C63.3070054,128.23878 63.2139073,128.274587 63.1422924,128.346202 C62.8844786,128.646985 62.5120865,129.040861 62.0251049,129.527842 C62.0107819,129.542165 62.0072012,129.56365 62.0143627,129.592296 C62.0215242,129.620942 62.0394277,129.635264 62.0680737,129.635264 L65.9352612,129.635264 C66.0355221,129.635264 66.1214587,129.592296 66.1930737,129.506358 C66.4938564,129.13396 66.7659891,128.754407 67.0094799,128.367686 Z M71.8004955,134.727061 C71.9150794,134.727061 71.9723705,134.66977 71.9723705,134.555186 L71.9723705,132.621592 C71.9723705,132.507009 71.9150794,132.449717 71.8004955,132.449717 L68.4059643,132.449717 C68.3057034,132.449717 68.2555737,132.507009 68.2555737,132.621592 L68.2555737,134.555186 C68.2555737,134.66977 68.3057034,134.727061 68.4059643,134.727061 L71.8004955,134.727061 Z M71.714558,142.203624 L73.3258862,142.203624 C73.5836999,142.203624 73.7627346,142.110526 73.8629955,141.924327 C73.9632564,141.738128 74.0420317,141.358574 74.0993237,140.785655 C74.1136466,140.513518 74.249713,140.305838 74.5075268,140.162608 C74.6364337,140.090993 74.7725,140.055186 74.9157299,140.055186 C75.0303138,140.055186 75.144896,140.083832 75.2594799,140.141124 C75.4600017,140.227062 75.6748433,140.312998 75.9040112,140.398936 C76.2620859,140.527843 76.5413799,140.742685 76.7419018,141.043467 C76.8994547,141.272635 76.9782299,141.523284 76.9782299,141.795421 C76.9782299,141.867035 76.9710685,141.945811 76.9567455,142.031749 C76.7419007,143.220557 76.3909928,144.040535 75.9040112,144.49171 C75.4170296,144.942884 74.6650839,145.168467 73.6481518,145.168467 L71.198933,145.168467 C69.7809572,145.168467 68.8284928,144.899915 68.3415112,144.362803 C67.8545296,143.825691 67.6110424,142.841001 67.6110424,141.408702 L67.6110424,137.691905 C67.6110424,137.591644 67.5537513,137.541514 67.4391674,137.541514 L65.8493237,137.541514 C65.7490627,137.541514 65.6917716,137.591644 65.6774487,137.691905 C65.5771877,138.422377 65.4482828,139.05616 65.2907299,139.593272 C65.133177,140.130384 64.900432,140.67823 64.5924877,141.236827 C64.2845435,141.795423 63.8942479,142.285978 63.4215893,142.708506 C62.9489307,143.131035 62.3473742,143.535653 61.6169018,143.922374 C60.8864294,144.309094 60.0199016,144.64568 59.0172924,144.932139 C58.8883855,144.975108 58.7594805,144.996592 58.6305737,144.996592 C58.4300518,144.996592 58.229533,144.946463 58.0290112,144.846202 C57.6995824,144.688649 57.4346111,144.445162 57.2340893,144.115733 C57.1051824,143.872242 56.9619547,143.635916 56.8044018,143.406749 C56.7041409,143.263519 56.6540112,143.11313 56.6540112,142.955577 C56.6540112,142.855316 56.6683339,142.755056 56.6969799,142.654796 C56.7972408,142.396982 56.9834369,142.23227 57.2555737,142.160655 C58.2152139,141.931487 59.0137085,141.670096 59.6510815,141.376475 C60.2884544,141.082854 60.7790094,140.735527 61.1227612,140.334483 C61.4665129,139.933439 61.7135807,139.539563 61.8639721,139.152842 C62.0143635,138.766122 62.1396877,138.279147 62.2399487,137.691905 C62.2542716,137.591644 62.2113033,137.541514 62.1110424,137.541514 L59.8336987,137.541514 C59.4899469,137.541514 59.1927494,137.41619 58.9420971,137.165538 C58.6914448,136.914885 58.5661205,136.617688 58.5661205,136.273936 L58.5661205,132.256358 C58.5661205,132.227712 58.5589591,132.220551 58.5446362,132.234874 C58.3870833,132.320812 58.2581783,132.285005 58.1579174,132.127452 C57.8714576,131.683439 57.5062269,131.217949 57.0622143,130.730967 C56.8903384,130.530446 56.8044018,130.308443 56.8044018,130.064952 L56.8044018,129.936046 C56.8330478,129.62094 56.9834369,129.384614 57.2555737,129.227061 C59.0029782,128.138514 60.4209328,126.820819 61.5094799,125.273936 C61.7243247,124.95883 62.0036188,124.729666 62.3473705,124.586436 C62.5908613,124.471852 62.8271871,124.414561 63.0563549,124.414561 C63.1852618,124.414561 63.3070054,124.428884 63.4215893,124.45753 L64.8825268,124.758311 C65.0687256,124.80128 65.2012113,124.908701 65.2799877,125.080577 C65.3587642,125.252453 65.3480221,125.417165 65.2477612,125.574717 C65.2047922,125.632009 65.219115,125.660655 65.2907299,125.660655 L68.8786205,125.660655 C68.9072665,125.660655 68.9430734,125.653494 68.9860424,125.639171 C69.0863033,125.610525 69.1794013,125.596202 69.2653393,125.596202 C69.4658611,125.596202 69.6520572,125.653493 69.823933,125.768077 L70.6403393,126.305186 C70.941122,126.491385 71.1273181,126.756356 71.198933,127.100108 C71.227579,127.200369 71.2419018,127.293467 71.2419018,127.379405 C71.2419018,127.622896 71.1702879,127.844899 71.027058,128.045421 C70.7119523,128.532402 70.3682057,129.019376 69.995808,129.506358 C69.981485,129.535004 69.981485,129.56365 69.995808,129.592296 C70.010131,129.620942 70.0316152,129.635264 70.0602612,129.635264 L74.0993237,129.635264 C74.4573984,129.635264 74.7581766,129.760589 75.0016674,130.011241 C75.2451582,130.261893 75.3669018,130.559091 75.3669018,130.902842 L75.3669018,136.273936 C75.3669018,136.617688 75.2451582,136.914885 75.0016674,137.165538 C74.7581766,137.41619 74.4573984,137.541514 74.0993237,137.541514 L71.1129955,137.541514 C71.0127346,137.541514 70.9626049,137.591644 70.9626049,137.691905 L70.9626049,141.365733 C70.9626049,141.738131 71.0055732,141.970876 71.0915112,142.063975 C71.1774491,142.157075 71.3851293,142.203624 71.714558,142.203624 Z M104.499714,137.004405 C104.499714,136.64633 104.625039,136.345552 104.875691,136.102061 C105.126343,135.85857 105.423541,135.736827 105.767292,135.736827 L106.583699,135.736827 C106.92745,135.736827 107.224648,135.85857 107.4753,136.102061 C107.725953,136.345552 107.851277,136.64633 107.851277,137.004405 L107.851277,143.965342 C107.851277,144.323417 107.725953,144.624195 107.4753,144.867686 C107.224648,145.111177 106.92745,145.232921 106.583699,145.232921 L105.595417,145.232921 C105.294635,145.232921 105.036825,145.1255 104.82198,144.910655 C104.607135,144.69581 104.499714,144.438 104.499714,144.137217 C104.499714,144.051279 104.456746,144.008311 104.370808,144.008311 L93.2633862,144.008311 C93.1774482,144.008311 93.1344799,144.051279 93.1344799,144.137217 C93.1344799,144.438 93.0270591,144.69581 92.8122143,144.910655 C92.5973695,145.1255 92.3395595,145.232921 92.0387768,145.232921 L91.136433,145.232921 C90.7926813,145.232921 90.4954838,145.111177 90.2448315,144.867686 C89.9941792,144.624195 89.8688549,144.323417 89.8688549,143.965342 L89.8688549,137.004405 C89.8688549,136.64633 89.9941792,136.345552 90.2448315,136.102061 C90.4954838,135.85857 90.7926813,135.736827 91.136433,135.736827 L91.8669018,135.736827 C92.2106535,135.736827 92.507851,135.85857 92.7585033,136.102061 C93.0091556,136.345552 93.1344799,136.64633 93.1344799,137.004405 L93.1344799,140.721202 C93.1344799,140.835786 93.1846096,140.893077 93.2848705,140.893077 L96.8512768,140.893077 C96.9515377,140.893077 97.0016674,140.835786 97.0016674,140.721202 L97.0016674,134.834483 C97.0016674,134.734222 96.9515377,134.684092 96.8512768,134.684092 L92.0172924,134.684092 C91.6735407,134.684092 91.3763431,134.558768 91.1256908,134.308116 C90.8750385,134.057464 90.7497143,133.760266 90.7497143,133.416514 L90.7497143,127.680186 C90.7497143,127.322111 90.8750385,127.021333 91.1256908,126.777842 C91.3763431,126.534352 91.6735407,126.412608 92.0172924,126.412608 L92.7047924,126.412608 C93.0485441,126.412608 93.3457417,126.534352 93.596394,126.777842 C93.8470463,127.021333 93.9723705,127.322111 93.9723705,127.680186 L93.9723705,131.418467 C93.9723705,131.518728 94.0225002,131.568858 94.1227612,131.568858 L96.8512768,131.568858 C96.9515377,131.568858 97.0016674,131.518728 97.0016674,131.418467 L97.0016674,125.896983 C97.0016674,125.538908 97.1269917,125.23813 97.377644,124.994639 C97.6282963,124.751148 97.9254938,124.629405 98.2692455,124.629405 L99.0641674,124.629405 C99.4079191,124.629405 99.7051167,124.751148 99.955769,124.994639 C100.206421,125.23813 100.331746,125.538908 100.331746,125.896983 L100.331746,131.418467 C100.331746,131.518728 100.381875,131.568858 100.482136,131.568858 L103.425496,131.568858 C103.525756,131.568858 103.575886,131.518728 103.575886,131.418467 L103.575886,127.658702 C103.575886,127.300627 103.70121,126.999849 103.951863,126.756358 C104.202515,126.512867 104.499713,126.391124 104.843464,126.391124 L105.702839,126.391124 C106.046591,126.391124 106.343789,126.512867 106.594441,126.756358 C106.845093,126.999849 106.970417,127.300627 106.970417,127.658702 L106.970417,133.416514 C106.970417,133.760266 106.845093,134.057464 106.594441,134.308116 C106.343789,134.558768 106.046591,134.684092 105.702839,134.684092 L100.482136,134.684092 C100.381875,134.684092 100.331746,134.734222 100.331746,134.834483 L100.331746,140.721202 C100.331746,140.835786 100.381875,140.893077 100.482136,140.893077 L104.349324,140.893077 C104.449585,140.893077 104.499714,140.835786 104.499714,140.721202 L104.499714,137.004405 Z M127.230183,127.336436 C127.230183,127.236175 127.180053,127.186046 127.079792,127.186046 L124.802449,127.186046 C124.687865,127.186046 124.630574,127.236175 124.630574,127.336436 L124.630574,127.723155 C124.630574,127.837739 124.687865,127.89503 124.802449,127.89503 L127.079792,127.89503 C127.180053,127.89503 127.230183,127.837739 127.230183,127.723155 L127.230183,127.336436 Z M124.630574,130.730967 C124.630574,130.845551 124.687865,130.902842 124.802449,130.902842 L127.079792,130.902842 C127.180053,130.902842 127.230183,130.845551 127.230183,130.730967 L127.230183,130.258311 C127.230183,130.15805 127.180053,130.107921 127.079792,130.107921 L124.802449,130.107921 C124.687865,130.107921 124.630574,130.15805 124.630574,130.258311 L124.630574,130.730967 Z M128.948933,124.629405 C129.292685,124.629405 129.589882,124.754729 129.840535,125.005381 C130.091187,125.256034 130.216511,125.553231 130.216511,125.896983 L130.216511,132.170421 C130.216511,132.514172 130.091187,132.81137 129.840535,133.062022 C129.589882,133.312674 129.292685,133.437999 128.948933,133.437999 L124.802449,133.437999 C124.687865,133.437999 124.630574,133.49529 124.630574,133.609874 L124.630574,143.471202 C124.630574,143.814954 124.505249,144.112151 124.254597,144.362803 C124.003945,144.613456 123.706747,144.73878 123.362996,144.73878 L122.739949,144.73878 C122.396197,144.73878 122.098999,144.613456 121.848347,144.362803 C121.597695,144.112151 121.472371,143.814954 121.472371,143.471202 L121.472371,125.896983 C121.472371,125.553231 121.597695,125.256034 121.848347,125.005381 C122.098999,124.754729 122.396197,124.629405 122.739949,124.629405 L128.948933,124.629405 Z M134.470417,130.816905 C134.470417,130.917166 134.527708,130.967296 134.642292,130.967296 L137.005574,130.967296 C137.120158,130.967296 137.177449,130.917166 137.177449,130.816905 L137.177449,130.258311 C137.177449,130.15805 137.120158,130.107921 137.005574,130.107921 L134.642292,130.107921 C134.527708,130.107921 134.470417,130.15805 134.470417,130.258311 L134.470417,130.816905 Z M137.177449,127.336436 C137.177449,127.236175 137.120158,127.186046 137.005574,127.186046 L134.642292,127.186046 C134.527708,127.186046 134.470417,127.236175 134.470417,127.336436 L134.470417,127.723155 C134.470417,127.837739 134.527708,127.89503 134.642292,127.89503 L137.005574,127.89503 C137.120158,127.89503 137.177449,127.837739 137.177449,127.723155 L137.177449,127.336436 Z M139.132527,124.629405 C139.476278,124.629405 139.773476,124.754729 140.024128,125.005381 C140.274781,125.256034 140.400105,125.553231 140.400105,125.896983 L140.400105,141.000499 C140.400105,141.902847 140.296265,142.59034 140.088581,143.062999 C139.880898,143.535657 139.512087,143.900888 138.982136,144.158702 C138.495155,144.402193 137.893598,144.559743 137.177449,144.631358 C136.70479,144.674327 136.117556,144.702973 135.41573,144.717296 L135.372761,144.717296 C135.029009,144.717296 134.72107,144.609875 134.448933,144.39503 C134.176796,144.165862 133.983439,143.865084 133.868855,143.492686 C133.782917,143.206226 133.675496,142.91261 133.546589,142.611827 C133.50362,142.511566 133.482136,142.411306 133.482136,142.311046 C133.482136,142.153493 133.532266,142.010265 133.632527,141.881358 C133.775757,141.65219 133.983437,141.537608 134.255574,141.537608 L134.277058,141.537608 C134.892947,141.551931 135.644892,141.559092 136.532917,141.559092 C136.962607,141.559092 137.177449,141.358574 137.177449,140.95753 L137.177449,133.652842 C137.177449,133.552582 137.120158,133.502452 137.005574,133.502452 L132.708699,133.502452 C132.364947,133.502452 132.067749,133.377128 131.817097,133.126475 C131.566445,132.875823 131.441121,132.578625 131.441121,132.234874 L131.441121,125.896983 C131.441121,125.553231 131.566445,125.256034 131.817097,125.005381 C132.067749,124.754729 132.364947,124.629405 132.708699,124.629405 L139.132527,124.629405 Z" id="免-出-門" fill="#FFFFFF"></path>
                <path d="M102.332131,48.4919341 C102.100166,46.250485 102.008503,43.3707598 101.882793,40.8296278 C101.839393,39.9646252 101.114692,39.215979 100.269144,39.1531241 C99.4235969,39.0902693 98.6891678,39.7423884 98.6409042,40.6073909 C98.5731856,41.7668386 98.5155687,43.0130858 98.4332587,43.8346885 C98.191941,46.2938848 98.0658571,48.7770258 97.6408386,51.2070394 C97.2060925,53.7002821 95.7278809,55.2656673 93.0898476,55.8743867 C89.2826392,56.7536064 85.8087859,58.4345997 83.0308257,61.295244 C76.2866492,68.2519297 78.6683994,78.9293985 87.557872,82.5671234 C88.3985557,82.9102061 88.6451113,82.5383149 88.1426466,81.7799411 C83.1808543,74.2766426 84.4177481,64.2224844 90.8719691,59.7055399 C91.6161257,59.1836201 92.0751907,59.1738925 91.828635,59.5701026 C91.6598996,59.840603 91.5195986,60.0628398 91.3699442,60.280587 C88.7416384,64.0537491 87.4516173,68.2328488 87.6499094,72.8223757 C87.6547732,72.9768939 87.6884454,73.1317863 87.7123901,73.2863044 C87.8814996,74.5374154 88.074928,75.7889005 88.4614105,76.9917479 C88.8239484,78.1223871 89.3600853,79.1950351 90.0511146,80.1659182 C90.7223147,81.1079928 91.5341899,81.9535402 92.447456,82.6640246 C93.2058298,83.2484251 98.3221403,86.3548768 99.0902416,84.5481738 C99.3461507,83.9540457 100.206289,79.1613629 100.327135,78.1223871 C100.636172,75.3732353 100.8296,72.0494107 100.839328,69.281178 C100.839328,68.8318406 100.791064,68.1939386 100.718482,67.6675292 C100.699401,67.4741009 100.665354,67.2615916 100.873,67.3147189 C100.993846,67.3775738 101.042109,67.5178748 101.08102,67.6675292 C101.718547,70.0878153 102.124111,72.6873126 102.264412,75.1801811 C102.322403,76.257693 102.332131,77.3396944 102.37553,78.4172063 C102.433521,79.813482 102.515831,81.2097578 102.592903,82.6060335 C102.617222,83.0071074 102.636303,83.4081812 102.660622,83.8088809 C102.699158,84.4707276 103.42386,84.9054737 104.25519,84.6544284 C110.458366,82.775143 114.154082,76.2285104 112.80158,69.0009501 C112.695325,68.4307668 112.569615,67.8609575 112.458497,67.2904001 C112.410233,67.0490823 112.36197,66.8122542 112.313706,66.5709364 C112.231396,66.1743522 112.55016,66.4837627 112.941507,67.3001276 C115.149658,71.8900287 115.081939,76.5233296 113.076944,81.2146215 C112.719644,82.0504415 113.101263,82.5334511 113.937083,82.1855046 C120.087131,79.6297812 123.271029,71.7837741 120.439941,65.5128797 C118.168935,60.4833687 114.014155,57.5071164 108.888117,56.304269 C104.448244,55.2656673 102.757149,52.5213794 102.332131,48.4919341 Z" id="Fill-1" fill="#FFFFFF"></path>
            </g>
        </g>
    </g>
</svg>