<?xml version="1.0" encoding="UTF-8" standalone="no"?>
<svg width="250px" height="93px" viewBox="0 0 250 93" version="1.1" xmlns="http://www.w3.org/2000/svg" xmlns:xlink="http://www.w3.org/1999/xlink">
    <!-- Generator: Sketch 41 (35326) - http://www.bohemiancoding.com/sketch -->
    <title>eatorganic</title>
    <desc>Created with Sketch.</desc>
    <defs>
        <polygon id="path-1" points="0 0.276666915 0 31.66802 20.5399068 31.66802 20.5399068 0.276666915 0 0.276666915"></polygon>
        <polygon id="path-3" points="4.20885937e-20 0.277451817 4.20885937e-20 31.6672351 24.1113354 31.6672351 24.1113354 0.277451817 0 0.277451817"></polygon>
    </defs>
    <g id="home" stroke="none" stroke-width="1" fill="none" fill-rule="evenodd">
        <g id="homepage" transform="translate(-825.000000, -2623.000000)">
            <g id="eatorganic" transform="translate(825.000000, 2623.000000)">
                <g id="Group-3" transform="translate(0.000000, 1.930005)">
                    <mask id="mask-2" fill="white">
                        <use xlink:href="#path-1"></use>
                    </mask>
                    <g id="Clip-2"></g>
                    <path d="M10.690528,7.17595165 L10.0305901,12.5807838 L17.0135093,12.5807838 C17.7262422,12.5807838 18.1812112,12.6577042 18.3784161,12.8115449 C18.6206522,13.0266079 18.743323,13.2919046 18.743323,13.6152841 C18.743323,13.7518569 18.7122671,14.0281423 18.6517081,14.4425703 L18.2417702,17.8694505 C18.1517081,18.6056882 18.0104037,19.0562217 17.8209627,19.2257604 C17.6315217,19.3937294 17.1734472,19.4800685 16.4451863,19.4800685 L9.18897516,19.4800685 L8.55232919,24.7687353 L16.1951863,24.7687353 C16.9079193,24.7687353 17.3551242,24.8456556 17.5368012,24.9994963 C17.7790373,25.2129896 17.9017081,25.4798561 17.9017081,25.8016657 C17.9017081,26.0010307 17.8784161,26.2867349 17.8333851,26.6540688 L17.4001553,30.057402 C17.3100932,30.7936397 17.1687888,31.2441732 16.9793478,31.4121421 C16.7899068,31.5816808 16.3318323,31.66802 15.6035714,31.66802 L1.72934783,31.66802 C1.01661491,31.66802 0.561645963,31.5910997 0.364440994,31.437259 C0.120652174,31.2221959 -0.000465838509,30.9474804 -0.000465838509,30.6099727 C-0.000465838509,30.4875281 0.022826087,30.2112427 0.0678571429,29.7811167 L3.47934783,1.88728492 C3.57096273,1.15104726 3.71071429,0.700513759 3.90170807,0.532544825 C4.08959627,0.363006087 4.55698758,0.276666915 5.2992236,0.276666915 L18.8333851,0.276666915 C19.5305901,0.276666915 19.977795,0.353587269 20.175,0.507427975 C20.4187888,0.722491003 20.5399068,0.99720655 20.5399068,1.33471422 C20.5399068,1.45872867 20.5166149,1.727165 20.4715839,2.14159303 L20.038354,5.56690345 C19.9638199,6.30157131 19.8302795,6.75681422 19.6408385,6.92478315 C19.4513975,7.09275209 18.985559,7.17595165 18.2417702,7.17595165 L10.690528,7.17595165 Z" id="Fill-1" fill="#FFFFFF" mask="url(#mask-2)"></path>
                </g>
                <path d="M33.5458075,18.02809 C32.1203416,18.02809 30.9371118,18.5712419 29.9976708,19.6496967 C29.056677,20.7328608 28.5877329,22.0844613 28.5877329,23.7092075 C28.5877329,24.8598732 28.8517081,25.7939061 29.382764,26.5144457 C30.1560559,27.5881911 31.2787267,28.1250637 32.7492236,28.1250637 C34.1746894,28.1250637 35.3423913,27.5850515 36.2523292,26.5018873 C37.1622671,25.4234326 37.617236,24.0467152 37.617236,22.3764447 C37.617236,21.0578101 37.2492236,20.0029024 36.5147516,19.2148612 C35.7787267,18.4236804 34.7895963,18.02809 33.5458075,18.02809 L33.5458075,18.02809 Z M36.5023292,31.2976359 C35.6079193,32.1249221 34.8190994,32.7292963 34.1374224,33.1123283 C32.7414596,33.864264 31.1731366,34.2410167 29.4293478,34.2410167 C26.7895963,34.2410167 24.7119565,33.3587874 23.1964286,31.5958984 C21.5737578,29.7246931 20.7631988,27.2820795 20.7631988,24.2617782 C20.7631988,21.7924779 21.3237578,19.5303916 22.4464286,17.4755193 C23.5675466,15.4222168 25.1001553,13.913636 27.0411491,12.9482071 C28.435559,12.2574937 29.9976708,11.9121371 31.7259317,11.9121371 C33.1824534,11.9121371 34.390528,12.1319095 35.3548137,12.566745 C36.3175466,13.0062898 37.359472,13.7974706 38.4821429,14.9465665 L38.4821429,14.28097 C38.496118,13.5306041 38.6032609,13.0549537 38.8004658,12.8555887 C39.0131988,12.6562237 39.4899068,12.5557563 40.2336957,12.5557563 L44.3051242,12.5557563 C45.0178571,12.5557563 45.4650621,12.6311069 45.6467391,12.7849476 C45.9045031,13.0000106 46.0333851,13.276296 46.0333851,13.6122338 C46.0333851,13.7362483 46.0100932,14.0109638 45.9650621,14.4410899 L43.8268634,31.9883492 C43.7352484,32.7230171 43.5954969,33.1735506 43.4060559,33.3430893 C43.2166149,33.5110583 42.7507764,33.5973974 42.0069876,33.5973974 L37.9588509,33.5973974 C37.382764,33.5973974 37.003882,33.5581524 36.8206522,33.481232 C36.4417702,33.3430893 36.2523292,33.0511059 36.2523292,32.6068517 C36.2523292,32.4074867 36.3051242,32.0793978 36.4122671,31.6194455 L36.5023292,31.2976359 Z" id="Fill-4" fill="#FFFFFF"></path>
                <path d="M58.4708075,18.5125313 L56.8326087,31.9626045 C56.7425466,32.7145402 56.6012422,33.1744925 56.4118012,33.3424614 C56.2223602,33.5120001 55.7642857,33.5967695 55.0360248,33.5967695 L50.8279503,33.5967695 C50.1152174,33.5967695 49.6680124,33.521419 49.4863354,33.3675783 C49.2440994,33.1525152 49.1229814,32.8762299 49.1229814,32.540292 C49.1229814,32.4021493 49.1447205,32.125864 49.1897516,31.711436 L50.8062112,18.5125313 L49.3947205,18.5125313 C48.6680124,18.5125313 48.2130435,18.4356109 48.0298137,18.28334 C47.7875776,18.068277 47.6664596,17.7919916 47.6664596,17.454484 C47.6664596,17.3163413 47.6897516,17.0463352 47.7347826,16.649175 L48.0531056,14.1641766 C48.1447205,13.4295088 48.2813665,12.9789753 48.4630435,12.8094365 C48.6447205,12.6414676 49.1074534,12.5551284 49.8496894,12.5551284 L51.5329193,12.5551284 L52.1478261,7.42815141 C52.2378882,6.69348355 52.3791925,6.23981044 52.5686335,6.07027171 C52.7580745,5.90230277 53.223913,5.81910321 53.9677019,5.81910321 L58.1524845,5.81910321 C58.8652174,5.81910321 59.3124224,5.89602356 59.4940994,6.04986427 C59.7518634,6.26335749 59.8807453,6.53964284 59.8807453,6.87715051 C59.8807453,7.01529319 59.8512422,7.28215972 59.7906832,7.68088971 L59.1990683,12.5551284 L61.4273292,12.5551284 C62.1400621,12.5551284 62.5950311,12.6320488 62.792236,12.7858895 C63.034472,12.9993827 63.1571429,13.2756681 63.1571429,13.6131757 C63.1571429,13.7356204 63.126087,14.0056265 63.065528,14.4200545 L62.7704969,16.9034831 C62.678882,17.6240227 62.534472,18.068277 62.3372671,18.2362459 C62.1400621,18.4199129 61.6850932,18.5125313 60.9723602,18.5125313 L58.4708075,18.5125313 Z" id="Fill-6" fill="#FFFFFF"></path>
                <path d="M91.0568323,9.10595699 C88.4481366,9.10595699 86.2804348,9.92696402 84.5521739,11.5674083 C82.7618012,13.2392486 81.8673913,15.3914487 81.8673913,18.028718 C81.8673913,20.8025601 82.7773292,22.995575 84.597205,24.6046232 C86.1437888,25.9844802 88.1298137,26.6736238 90.5568323,26.6736238 C93.4822981,26.6736238 95.7881988,25.6924968 97.4714286,23.7302429 C98.8658385,22.1211947 99.5645963,20.1432428 99.5645963,17.7979569 C99.5645963,16.5876387 99.347205,15.4071467 98.915528,14.256481 C98.4838509,13.1073852 97.8953416,12.1498052 97.1531056,11.3837413 C95.6515528,9.8657417 93.6189441,9.10595699 91.0568323,9.10595699 M91.3751553,1.56305297 C95.6515528,1.56305297 99.1996894,2.67604339 102.021118,4.89888461 C104.204348,6.6005512 105.774224,8.79984538 106.729193,11.4967671 C107.334783,13.2141318 107.63913,15.0931861 107.63913,17.1323604 C107.63913,19.0035657 107.339441,20.8951785 106.740062,22.8103383 C106.140683,24.7270679 105.325466,26.4067572 104.29441,27.8478365 C101.247826,32.0957238 96.7431677,34.2165278 90.7835404,34.2165278 C86.0226708,34.2165278 82.1484472,32.9528363 79.1608696,30.4238834 C77.1282609,28.7065188 75.65,26.5448999 74.7245342,23.9390267 C74.1034161,22.1918358 73.7928571,20.3222003 73.7928571,18.3285504 C73.7928571,15.0319638 74.6111801,12.0336398 76.2493789,9.33514825 C77.9326087,6.52991006 80.3658385,4.4389323 83.5506211,3.05907535 C85.8704969,2.06382017 88.4791925,1.56305297 91.3751553,1.56305297" id="Fill-8" fill="#FFFFFF"></path>
                <path d="M118.825155,15.4066758 C120.02236,14.3188022 121.11087,13.5731457 122.08913,13.1649969 C123.067391,12.7599877 124.284783,12.5559133 125.739752,12.5559133 C126.665217,12.5559133 127.12795,12.9075492 127.12795,13.6123908 C127.12795,13.7505335 127.104658,14.0268188 127.059627,14.4412469 L126.672981,17.6844601 C126.596894,18.3139512 126.48354,18.7393678 126.331366,18.9607101 C126.179193,19.1836221 125.936957,19.2950781 125.603106,19.2950781 C125.497516,19.2950781 125.329814,19.2636821 125.103106,19.2024598 C124.345342,18.9716987 123.624845,18.8555333 122.941615,18.8555333 C121.182298,18.8555333 119.893478,19.4536283 119.075155,20.6498182 C118.575155,21.4001841 118.204037,22.7345168 117.960248,24.6512464 L117.050311,31.9885062 C116.960248,32.707476 116.815839,33.1595793 116.618634,33.3432463 C116.421429,33.5112152 115.96646,33.5975544 115.253727,33.5975544 L111.068944,33.5975544 C110.356211,33.5975544 109.901242,33.5206341 109.704037,33.3667934 C109.461801,33.1533001 109.340683,32.883294 109.340683,32.5614843 C109.340683,32.4233417 109.362422,32.1407771 109.409006,31.7122209 L111.568944,14.1649615 C111.660559,13.4287239 111.800311,12.9781904 111.989752,12.8102214 C112.179193,12.6406827 112.63882,12.5559133 113.365528,12.5559133 L117.436957,12.5559133 C118.104658,12.5559133 118.559627,12.6281243 118.801863,12.7756858 C119.045652,12.9201076 119.16677,13.1838346 119.16677,13.5668665 C119.16677,13.7207072 119.113975,14.0362377 119.006832,14.511888 L118.825155,15.4066758 Z" id="Fill-10" fill="#FFFFFF"></path>
                <path d="M139.997205,18.0527359 C138.40559,18.0527359 137.177329,18.7277513 136.312422,20.0762122 C135.70528,21.0275129 135.402484,22.1452127 135.402484,23.4340211 C135.402484,24.7526557 135.744099,25.8311104 136.425776,26.6740947 C137.199068,27.6253954 138.253416,28.0994759 139.587267,28.0994759 C141.08882,28.0994759 142.227019,27.517079 143.000311,26.3522851 C143.713043,25.2801095 144.068634,23.9756031 144.068634,22.4434753 C144.068634,20.9254757 143.629193,19.7857986 142.748758,19.0181649 C142.006522,18.3745456 141.08882,18.0527359 139.997205,18.0527359 L139.997205,18.0527359 Z M142.863665,31.4117605 C141.922671,32.3002691 141.133851,32.9297602 140.497205,33.2970941 C139.390062,33.9108871 138.140062,34.2169987 136.744099,34.2169987 C135.45528,34.2169987 134.20528,33.959551 132.990994,33.4477952 C131.778261,32.9344696 130.778261,32.2327676 129.989441,31.344259 C128.382298,29.549974 127.57795,27.0273004 127.57795,23.7762381 C127.57795,20.3116826 128.532919,17.5001652 130.44441,15.3385463 C132.459938,13.0701808 134.992547,11.936783 138.040683,11.936783 C139.542236,11.936783 140.831056,12.2114985 141.907143,12.7640692 C142.984783,13.3150701 144.06087,14.256952 145.138509,15.5912846 L145.18354,14.256952 C145.213043,13.5065861 145.32795,13.0403546 145.523602,12.8551178 C145.72236,12.6557528 146.191304,12.5552854 146.935093,12.5552854 L151.051553,12.5552854 C151.764286,12.5552854 152.211491,12.6322058 152.393168,12.7860465 C152.650932,12.9995397 152.779814,13.275825 152.779814,13.6133327 C152.779814,13.7200793 152.750311,13.9900855 152.689752,14.4202115 L150.551553,32.0334026 C150.020497,36.4178627 149.19441,39.4601412 148.071739,41.1618078 C147.025155,42.7253317 145.654037,43.8446013 143.95528,44.5180468 C142.27205,45.1930622 140.163354,45.5305699 137.632298,45.5305699 C132.459938,45.5305699 129.087267,43.8838464 127.509627,40.5872598 C126.963043,39.453862 126.691304,38.457037 126.691304,37.5983547 C126.691304,37.1854964 126.812422,36.9029319 127.054658,36.75851 C127.296894,36.6109485 127.751863,36.5403074 128.419565,36.5403074 L132.286025,36.5403074 C132.907143,36.5403074 133.313975,36.5874014 133.503416,36.67845 C133.692857,36.7710684 133.855901,37.0065389 133.992547,37.3895708 C134.219255,37.9876658 134.678882,38.4758746 135.368323,38.8526274 C136.057764,39.2262405 136.851242,39.4130471 137.745652,39.4130471 C139.185093,39.4130471 140.281366,39.0300151 141.032919,38.2639512 C141.782919,37.4978873 142.264286,36.27972 142.477019,34.6094495 L142.863665,31.4117605 Z" id="Fill-12" fill="#FFFFFF"></path>
                <path d="M167.765528,18.02809 C166.340062,18.02809 165.156832,18.5712419 164.217391,19.6496967 C163.276398,20.7328608 162.807453,22.0844613 162.807453,23.7092075 C162.807453,24.8598732 163.072981,25.7939061 163.602484,26.5144457 C164.375776,27.5881911 165.498447,28.1250637 166.968944,28.1250637 C168.39441,28.1250637 169.562112,27.5850515 170.47205,26.5018873 C171.381988,25.4234326 171.836957,24.0467152 171.836957,22.3764447 C171.836957,21.0578101 171.468944,20.0029024 170.734472,19.2148612 C169.998447,18.4236804 169.009317,18.02809 167.765528,18.02809 L167.765528,18.02809 Z M170.72205,31.2976359 C169.82764,32.1249221 169.03882,32.7292963 168.357143,33.1123283 C166.96118,33.864264 165.392857,34.2410167 163.649068,34.2410167 C161.009317,34.2410167 158.93323,33.3587874 157.416149,31.5958984 C155.793478,29.7246931 154.982919,27.2820795 154.982919,24.2617782 C154.982919,21.7924779 155.543478,19.5303916 156.666149,17.4755193 C157.787267,15.4222168 159.319876,13.913636 161.26087,12.9482071 C162.65528,12.2574937 164.217391,11.9121371 165.945652,11.9121371 C167.402174,11.9121371 168.610248,12.1319095 169.574534,12.566745 C170.537267,13.0062898 171.579193,13.7974706 172.701863,14.9465665 L172.701863,14.28097 C172.715839,13.5306041 172.822981,13.0549537 173.020186,12.8555887 C173.232919,12.6562237 173.709627,12.5557563 174.453416,12.5557563 L178.524845,12.5557563 C179.237578,12.5557563 179.684783,12.6311069 179.86646,12.7849476 C180.124224,13.0000106 180.253106,13.276296 180.253106,13.6122338 C180.253106,13.7362483 180.229814,14.0109638 180.184783,14.4410899 L178.046584,31.9883492 C177.954969,32.7230171 177.815217,33.1735506 177.625776,33.3430893 C177.436335,33.5110583 176.970497,33.5973974 176.226708,33.5973974 L172.178571,33.5973974 C171.602484,33.5973974 171.223602,33.5581524 171.040373,33.481232 C170.661491,33.3430893 170.47205,33.0511059 170.47205,32.6068517 C170.47205,32.4074867 170.524845,32.0793978 170.631988,31.6194455 L170.72205,31.2976359 Z" id="Fill-14" fill="#FFFFFF"></path>
                <path d="M191.871739,15.293179 C192.978882,14.296354 193.904348,13.5820936 194.646584,13.1535374 C196.103106,12.3403793 197.702484,11.9353701 199.446273,11.9353701 C202.1,11.9353701 203.972671,12.8160297 205.064286,14.5789186 C205.685404,15.5898718 205.997516,16.8472841 205.997516,18.3495857 C205.997516,19.1627437 205.905901,20.2977114 205.724224,21.7529189 L204.495963,31.9880353 C204.404348,32.7242729 204.264596,33.1748064 204.075155,33.3427754 C203.885714,33.5107443 203.419876,33.5970835 202.676087,33.5970835 L198.491304,33.5970835 C197.778571,33.5970835 197.331366,33.5201631 197.148137,33.3678922 C196.905901,33.1528292 196.784783,32.8765438 196.784783,32.5390362 C196.784783,32.3710672 196.808075,32.0947819 196.853106,31.7117499 L197.739752,24.3289658 C197.876398,23.2552205 197.94472,22.390259 197.94472,21.7325114 C197.94472,19.5096702 197.013043,18.3966798 195.146584,18.3966798 C193.918323,18.3966798 192.978882,18.8503529 192.326708,19.7545595 C191.766149,20.5206234 191.356211,21.9679819 191.098447,24.0982048 L190.143478,31.9880353 C190.036335,32.7085749 189.893478,33.1591084 189.710248,33.3427754 C189.513043,33.5107443 189.051863,33.5970835 188.323602,33.5970835 L184.13882,33.5970835 C183.426087,33.5970835 182.971118,33.5201631 182.773913,33.3678922 C182.530124,33.1528292 182.409006,32.882823 182.409006,32.5610134 C182.409006,32.4228707 182.432298,32.1403062 182.477329,31.7117499 L184.63882,14.1644906 C184.728882,13.4298227 184.870186,12.9777194 185.059627,12.8097505 C185.249068,12.6417815 185.707143,12.5554424 186.435404,12.5554424 L190.48354,12.5554424 C191.151242,12.5554424 191.606211,12.6292231 191.848447,12.7752148 C192.092236,12.9196367 192.213354,13.1833636 192.213354,13.5663956 C192.213354,13.7045383 192.160559,14.0263479 192.053416,14.5333943 L191.871739,15.293179 Z" id="Fill-16" fill="#FFFFFF"></path>
                <path d="M216.250932,0 C217.434161,0 218.449689,0.414428025 219.299068,1.24171427 C220.224534,2.14592087 220.685714,3.2651905 220.685714,4.59952316 C220.685714,5.88676172 220.246273,6.98405411 219.367391,7.88826071 C218.486957,8.79403711 217.426398,9.24457061 216.182609,9.24457061 C214.802174,9.24457061 213.673292,8.7375242 212.792857,7.72657098 C211.990062,6.80666635 211.587888,5.75803786 211.587888,4.57754591 C211.587888,3.32013361 212.019565,2.2620863 212.884472,1.4049738 C213.839441,0.469371135 214.962112,0 216.250932,0 M218.752484,14.440619 L216.592547,31.9878783 C216.51646,32.724116 216.382919,33.1746494 216.193478,33.3426184 C216.004037,33.5121571 215.538199,33.5969265 214.795963,33.5969265 L210.609627,33.5969265 C209.896894,33.5969265 209.441925,33.5215759 209.24472,33.3677352 C209.002484,33.1526722 208.881366,32.8826661 208.881366,32.5608564 C208.881366,32.4227138 208.904658,32.141719 208.949689,31.7115929 L211.109627,14.1643336 C211.201242,13.4296657 211.340994,12.9791322 211.530435,12.8095935 C211.721429,12.6416246 212.179503,12.5552854 212.907764,12.5552854 L217.115839,12.5552854 C217.813043,12.5552854 218.260248,12.6322058 218.457453,12.7860465 C218.699689,12.9995397 218.820807,13.275825 218.820807,13.6133327 C218.820807,13.7357773 218.799068,14.0120627 218.752484,14.440619" id="Fill-18" fill="#FFFFFF"></path>
                <path d="M238.605745,14.854733 L238.287422,17.4088027 C238.211335,18.036724 238.093323,18.46685 237.934938,18.6960413 C237.775,18.9268023 237.521894,19.0398281 237.172516,19.0398281 C237.03587,19.0398281 236.824689,18.9629078 236.53587,18.8106369 C235.596429,18.3035905 234.663199,18.052422 233.737733,18.052422 C232.327795,18.052422 231.167857,18.5343515 230.257919,19.4997805 C229.271894,20.5735258 228.779658,21.9314055 228.779658,23.5718498 C228.779658,24.997231 229.16941,26.1070818 229.950466,26.9045418 C230.731522,27.7020018 231.820031,28.1007318 233.214441,28.1007318 C233.700466,28.1007318 234.034317,28.0756149 234.215994,28.0206718 C234.397671,27.9688683 234.799845,27.7726429 235.420963,27.4351353 C235.573137,27.3582149 235.739286,27.3174 235.920963,27.3174 C236.225311,27.3174 236.467547,27.4225768 236.649224,27.6313607 C236.830901,27.8370049 236.922516,28.1085808 236.922516,28.4460885 C236.922516,28.5685331 236.899224,28.8197016 236.854193,29.2043034 L236.559161,31.711279 C236.483075,32.2324536 236.417857,32.5699613 236.365062,32.723802 C236.312267,32.8760729 236.202019,33.0142156 236.03587,33.1366602 C235.670963,33.3674213 234.920963,33.6028917 233.784317,33.8493508 C232.646118,34.0942401 231.691149,34.2166848 230.917857,34.2166848 C228.551398,34.2166848 226.512578,33.5510882 224.798292,32.2183254 C222.23618,30.2089774 220.955124,27.3801922 220.955124,23.7303999 C220.955124,21.5389547 221.455124,19.5154785 222.456677,17.6599712 C223.653882,15.452828 225.389907,13.857908 227.664752,12.8767811 C229.135248,12.2488598 230.728416,11.936469 232.441149,11.936469 C233.472205,11.936469 234.59177,12.0651929 235.796739,12.3257802 C237.001708,12.5863675 237.824689,12.8705019 238.26413,13.1781833 C238.537422,13.3775483 238.674068,13.6444148 238.674068,13.9803527 C238.674068,14.1184953 238.650776,14.4104787 238.605745,14.854733" id="Fill-20" fill="#FFFFFF"></path>
                <path d="M249.359938,27.9161229 L242.786957,39.4840022 C242.453106,40.0663991 242.21087,40.3976276 242.058696,40.4839668 C241.906522,40.5655965 241.504348,40.609551 240.852174,40.609551 L238.80559,40.609551 C238.213975,40.609551 237.819565,40.5640267 237.62236,40.4714083 C237.259006,40.3175676 237.077329,40.0428521 237.077329,39.6441221 C237.077329,39.4290591 237.206211,39.0397479 237.463975,38.473049 L242.900311,26.9742411 C243.187578,26.3463198 243.41118,25.9805557 243.571118,25.8832279 C243.731056,25.7827605 244.151863,25.7325268 244.83354,25.7325268 L248.131677,25.7325268 C248.73882,25.7325268 249.139441,25.7796209 249.336646,25.8706695 C249.686025,26.0402082 249.859938,26.321203 249.859938,26.719933 C249.859938,26.950694 249.693789,27.349424 249.359938,27.9161229" id="Fill-22" fill="#FFFFFF"></path>
                <g id="Group-26" transform="translate(0.000000, 49.024099)">
                    <mask id="mask-4" fill="white">
                        <use xlink:href="#path-3"></use>
                    </mask>
                    <g id="Clip-25"></g>
                    <path d="M10.7588509,6.55666432 L10.0088509,12.8327372 L11.1454969,12.8327372 C12.9048137,12.8327372 14.1330745,12.5658707 14.8302795,12.028998 C15.5880435,11.4466011 15.9684783,10.5486737 15.9684783,9.33678565 C15.9684783,8.1562937 15.5802795,7.34470549 14.8069876,6.9004512 C14.3830745,6.66969014 13.5041925,6.55666432 12.1687888,6.55666432 L10.7588509,6.55666432 Z M9.30388199,18.535832 L8.48400621,25.3880226 L10.598913,25.3880226 C11.7821429,25.3880226 12.6579193,25.3236607 13.2262422,25.1949368 C13.796118,25.0630734 14.3069876,24.8213237 14.7619565,24.468118 C15.6113354,23.7632764 16.0352484,22.7664514 16.0352484,21.4792128 C16.0352484,20.2531966 15.6423913,19.4180613 14.8535714,18.973807 C14.3225155,18.6833935 13.2681677,18.535832 11.6920807,18.535832 L9.30388199,18.535832 Z M18.356677,15.3161658 C19.9638199,15.6834997 21.1765528,16.2297912 21.9948758,16.9503308 C23.4063665,18.1622188 24.1113354,19.9156889 24.1113354,22.2154505 C24.1113354,24.1777044 23.5569876,25.9343141 22.4498447,27.48214 C21.0554348,29.4443939 19.2045031,30.7080854 16.9001553,31.2747843 C15.7930124,31.5353717 14.2309006,31.6672351 12.2138199,31.6672351 L1.72934783,31.6672351 C1.01661491,31.6672351 0.561645963,31.5903148 0.364440994,31.4380439 C0.120652174,31.2229808 -0.000465838509,30.9466955 -0.000465838509,30.6091878 C-0.000465838509,30.4867432 0.022826087,30.2104578 0.0678571429,29.7819016 L3.48090062,1.88650002 C3.57096273,1.15183216 3.71071429,0.699728858 3.90170807,0.531759923 C4.09114907,0.363790989 4.55698758,0.277451817 5.2992236,0.277451817 L13.5787267,0.277451817 C16.5507764,0.277451817 18.6517081,0.583563426 19.8799689,1.19735645 C21.0787267,1.77975341 21.9809006,2.66826198 22.5864907,3.86445196 C23.1486025,4.95232552 23.4281056,6.18933039 23.4281056,7.56761753 C23.4281056,9.40742679 22.9653727,11.0337428 22.0414596,12.443426 C21.2681677,13.5925219 20.0399068,14.5501018 18.356677,15.3161658 L18.356677,15.3161658 Z" id="Fill-24" fill="#FFFFFF" mask="url(#mask-4)"></path>
                </g>
                <path d="M41.3248447,67.3542869 C41.2642857,66.5725249 41.0981366,65.9650111 40.8248447,65.5364548 C40.1881988,64.5851541 39.2099379,64.1110736 37.8900621,64.1110736 C35.7968944,64.1110736 34.5158385,65.192668 34.0468944,67.3542869 L41.3248447,67.3542869 Z M33.5236025,71.7450262 C33.5236025,73.1861055 33.7813665,74.1970587 34.2968944,74.7794556 C34.9630435,75.4999953 35.9335404,75.8626198 37.2083851,75.8626198 C37.8450311,75.8626198 38.413354,75.7276167 38.913354,75.4607502 C39.4149068,75.1907441 39.739441,74.840678 39.8916149,74.4121217 C39.9832298,74.1060101 40.1307453,73.9129243 40.3357143,73.8265851 C40.5406832,73.7433856 40.9459627,73.7010009 41.5515528,73.7010009 L46.1012422,73.7010009 C46.7083851,73.7010009 47.110559,73.7465252 47.307764,73.8391436 C47.671118,73.9929843 47.852795,74.273979 47.852795,74.6884071 C47.852795,75.1169633 47.6214286,75.7150583 47.1586957,76.4811222 C46.6975155,77.248756 46.1773292,77.8923752 45.6012422,78.4135499 C43.5080745,80.3444077 40.6493789,81.3114064 37.0251553,81.3114064 C33.7658385,81.3114064 31.2254658,80.4982484 29.4055901,78.8735022 C28.4055901,77.9834238 27.6245342,76.850026 27.0624224,75.470169 C26.5018634,74.0903121 26.2208075,72.6131273 26.2208075,71.0339054 C26.2208075,67.6447004 27.3139752,64.8002172 29.497205,62.5004556 C31.6804348,60.1865658 34.6835404,59.0296209 38.5049689,59.0296209 C42.1431677,59.0296209 44.8885093,60.1237737 46.7378882,62.3167886 C48.360559,64.2335182 49.1726708,66.8236934 49.1726708,70.0888839 C49.1726708,70.8094235 49.0701863,71.2662362 48.8652174,71.459322 C48.6602484,71.6492682 48.171118,71.7450262 47.3978261,71.7450262 L33.5236025,71.7450262 Z" id="Fill-27" fill="#FFFFFF"></path>
                <path d="M82.9864907,67.6302583 L71.5004658,67.6302583 L70.0889752,79.0819721 C70.014441,79.8182097 69.8809006,80.2687432 69.6914596,80.4367121 C69.5020186,80.6062509 69.0361801,80.6910203 68.2923913,80.6910203 L63.9259317,80.6910203 C63.2131988,80.6910203 62.7582298,80.6140999 62.5610248,80.461829 C62.317236,80.246766 62.196118,79.9704806 62.196118,79.6329729 C62.196118,79.5105283 62.2194099,79.2358128 62.264441,78.8056867 L65.6774845,50.911855 C65.7675466,50.1756173 65.9088509,49.7250838 66.0982919,49.5555451 C66.2877329,49.3875761 66.7535714,49.301237 67.4958075,49.301237 L71.8638199,49.301237 C72.5765528,49.301237 73.0237578,49.3781573 73.2054348,49.531998 C73.4476708,49.7454912 73.5703416,50.0217766 73.5703416,50.3592843 C73.5703416,50.513125 73.5470497,50.7831311 73.5020186,51.1661631 L72.3420807,60.7309735 L83.8281056,60.7309735 L85.0113354,50.911855 C85.1013975,50.1756173 85.2427019,49.7250838 85.4321429,49.5555451 C85.6215839,49.3875761 86.0874224,49.301237 86.8312112,49.301237 L91.1976708,49.301237 C91.9104037,49.301237 92.3653727,49.3781573 92.5625776,49.531998 C92.8048137,49.7454912 92.9259317,50.0217766 92.9259317,50.3592843 C92.9259317,50.4974269 92.9041925,50.7737123 92.8576087,51.1865705 L89.446118,79.0819721 C89.3560559,79.8182097 89.2147516,80.2687432 89.0253106,80.4367121 C88.8358696,80.6062509 88.3700311,80.6910203 87.6262422,80.6910203 L83.2597826,80.6910203 C82.5470497,80.6910203 82.0998447,80.6140999 81.9181677,80.461829 C81.6743789,80.246766 81.5532609,79.9704806 81.5532609,79.6329729 C81.5532609,79.480702 81.5765528,79.2044167 81.6215839,78.8056867 L82.9864907,67.6302583 Z" id="Fill-29" fill="#FFFFFF"></path>
                <path d="M109.344565,67.3542869 C109.284006,66.5725249 109.117857,65.9650111 108.844565,65.5364548 C108.207919,64.5851541 107.229658,64.1110736 105.909783,64.1110736 C103.816615,64.1110736 102.535559,65.192668 102.066615,67.3542869 L109.344565,67.3542869 Z M101.543323,71.7450262 C101.543323,73.1861055 101.801087,74.1970587 102.316615,74.7794556 C102.982764,75.4999953 103.953261,75.8626198 105.228106,75.8626198 C105.864752,75.8626198 106.433075,75.7276167 106.933075,75.4607502 C107.434627,75.1907441 107.759161,74.840678 107.911335,74.4121217 C108.00295,74.1060101 108.150466,73.9129243 108.355435,73.8265851 C108.560404,73.7433856 108.965683,73.7010009 109.571273,73.7010009 L114.120963,73.7010009 C114.728106,73.7010009 115.13028,73.7465252 115.327484,73.8391436 C115.690839,73.9929843 115.872516,74.273979 115.872516,74.6884071 C115.872516,75.1169633 115.641149,75.7150583 115.178416,76.4811222 C114.717236,77.248756 114.19705,77.8923752 113.620963,78.4135499 C111.527795,80.3444077 108.669099,81.3114064 105.044876,81.3114064 C101.785559,81.3114064 99.2451863,80.4982484 97.4253106,78.8735022 C96.4253106,77.9834238 95.6442547,76.850026 95.0821429,75.470169 C94.5215839,74.0903121 94.240528,72.6131273 94.240528,71.0339054 C94.240528,67.6447004 95.3336957,64.8002172 97.5169255,62.5004556 C99.7001553,60.1865658 102.703261,59.0296209 106.524689,59.0296209 C110.162888,59.0296209 112.90823,60.1237737 114.757609,62.3167886 C116.38028,64.2335182 117.192391,66.8236934 117.192391,70.0888839 C117.192391,70.8094235 117.089907,71.2662362 116.884938,71.459322 C116.679969,71.6492682 116.190839,71.7450262 115.417547,71.7450262 L101.543323,71.7450262 Z" id="Fill-31" fill="#FFFFFF"></path>
                <path d="M131.949534,65.1221838 C130.524068,65.1221838 129.340839,65.6653357 128.401398,66.7437904 C127.460404,67.8269546 126.99146,69.1785551 126.99146,70.8033013 C126.99146,71.953967 127.256988,72.8879999 127.786491,73.6085395 C128.559783,74.6822848 129.682453,75.2191575 131.15295,75.2191575 C132.578416,75.2191575 133.746118,74.6791452 134.656056,73.5959811 C135.565994,72.5175263 136.020963,71.140809 136.020963,69.4705385 C136.020963,68.1519038 135.65295,67.0969961 134.918478,66.308955 C134.182453,65.5177742 133.193323,65.1221838 131.949534,65.1221838 L131.949534,65.1221838 Z M134.906056,78.3917296 C134.011646,79.2190159 133.222826,79.8233901 132.541149,80.206422 C131.145186,80.9583577 129.576863,81.3351105 127.833075,81.3351105 C125.193323,81.3351105 123.117236,80.4528811 121.600155,78.6899922 C119.977484,76.8187869 119.166925,74.3761732 119.166925,71.355872 C119.166925,68.8865717 119.727484,66.6244854 120.850155,64.5696131 C121.971273,62.5163106 123.503882,61.0077298 125.444876,60.0423009 C126.839286,59.3515875 128.401398,59.0062308 130.129658,59.0062308 C131.58618,59.0062308 132.794255,59.2260033 133.75854,59.6608387 C134.721273,60.1003836 135.763199,60.8915644 136.88587,62.0406603 L136.88587,61.3750637 C136.899845,60.6246978 137.006988,60.1490475 137.204193,59.9496825 C137.416925,59.7503175 137.893634,59.6498501 138.637422,59.6498501 L142.708851,59.6498501 C143.421584,59.6498501 143.868789,59.7252007 144.050466,59.8790414 C144.30823,60.0941044 144.437112,60.3703897 144.437112,60.7063276 C144.437112,60.8303421 144.41382,61.1050576 144.368789,61.5351837 L142.23059,79.082443 C142.138975,79.8171109 141.999224,80.2676444 141.809783,80.4371831 C141.620342,80.605152 141.154503,80.6914912 140.410714,80.6914912 L136.362578,80.6914912 C135.786491,80.6914912 135.407609,80.6522461 135.224379,80.5753258 C134.845497,80.4371831 134.656056,80.1451997 134.656056,79.7009454 C134.656056,79.5015804 134.708851,79.1734916 134.815994,78.7135393 L134.906056,78.3917296 Z" id="Fill-33" fill="#FFFFFF"></path>
                <path d="M158.08028,48.2438176 L154.303882,79.0826 C154.227795,79.8172678 154.095807,80.2678013 153.906366,80.4373401 C153.716925,80.605309 153.251087,80.6916482 152.507298,80.6916482 L148.322516,80.6916482 C147.609783,80.6916482 147.154814,80.6147278 146.957609,80.4608871 C146.715373,80.2473939 146.592702,79.9711085 146.592702,79.6336009 C146.592702,79.5111562 146.615994,79.2348709 146.661025,78.8063146 L150.437422,47.9675322 C150.529037,47.2312946 150.668789,46.7807611 150.85823,46.6127921 C151.047671,46.4448232 151.513509,46.358484 152.257298,46.358484 L156.442081,46.358484 C157.154814,46.358484 157.602019,46.4354044 157.783696,46.5876753 C158.027484,46.8027383 158.148602,47.0790237 158.148602,47.4165313 C158.148602,47.5688022 158.125311,47.8450876 158.08028,48.2438176" id="Fill-35" fill="#FFFFFF"></path>
                <path d="M168.993789,65.606625 L167.35559,79.0566982 C167.265528,79.8086339 167.124224,80.2685862 166.934783,80.4365552 C166.745342,80.6060939 166.287267,80.6908633 165.559006,80.6908633 L161.350932,80.6908633 C160.638199,80.6908633 160.190994,80.6155127 160.009317,80.461672 C159.767081,80.246609 159.645963,79.9703236 159.645963,79.6343858 C159.645963,79.4962431 159.667702,79.2199577 159.712733,78.8055297 L161.329193,65.606625 L159.917702,65.606625 C159.190994,65.606625 158.736025,65.5297047 158.552795,65.3774338 C158.310559,65.1623708 158.189441,64.8860854 158.189441,64.5485777 C158.189441,64.4104351 158.212733,64.1404289 158.257764,63.7432687 L158.576087,61.2582704 C158.667702,60.5236025 158.804348,60.073069 158.986025,59.9035303 C159.167702,59.7355614 159.630435,59.6492222 160.372671,59.6492222 L162.055901,59.6492222 L162.670807,54.5222452 C162.76087,53.7875773 162.902174,53.3339042 163.091615,53.1643655 C163.281056,52.9963965 163.746894,52.913197 164.490683,52.913197 L168.675466,52.913197 C169.388199,52.913197 169.835404,52.9901173 170.017081,53.143958 C170.274845,53.3574513 170.403727,53.6337366 170.403727,53.9712443 C170.403727,54.109387 170.374224,54.3762535 170.313665,54.7749835 L169.72205,59.6492222 L171.950311,59.6492222 C172.663043,59.6492222 173.118012,59.7261425 173.315217,59.8799832 C173.557453,60.0934765 173.680124,60.3697618 173.680124,60.7072695 C173.680124,60.8297141 173.649068,61.0997203 173.588509,61.5141483 L173.293478,63.9975768 C173.201863,64.7181165 173.057453,65.1623708 172.860248,65.3303397 C172.663043,65.5140067 172.208075,65.606625 171.495342,65.606625 L168.993789,65.606625 Z" id="Fill-37" fill="#FFFFFF"></path>
                <path d="M183.387422,61.5135204 C184.570652,60.6705361 185.555124,60.0944183 186.343944,59.7867369 C187.603261,59.2812603 188.899845,59.0300918 190.233696,59.0300918 C192.40295,59.0300918 194.067547,59.6642923 195.225932,60.9374026 C196.387422,62.2089432 196.966615,64.0424732 196.966615,66.4348532 C196.966615,67.368886 196.876553,68.541529 196.693323,69.9512122 L195.579969,79.0811871 C195.488354,79.8017268 195.343944,80.2538301 195.146739,80.437497 C194.949534,80.605466 194.494565,80.6918052 193.781832,80.6918052 L189.573758,80.6918052 C188.861025,80.6918052 188.41382,80.6148848 188.232143,80.4610441 C187.989907,80.2475509 187.868789,79.9775447 187.868789,79.6557351 C187.868789,79.5018944 187.890528,79.2193298 187.937112,78.8064716 L188.755435,72.2509738 C188.95264,70.6717518 189.052019,69.5305049 189.052019,68.8256633 C189.052019,66.6028221 188.118789,65.4898317 186.253882,65.4898317 C184.842391,65.4898317 183.805124,66.0581004 183.137422,67.1914983 C182.75854,67.8351176 182.46972,69.0093303 182.272516,70.7109969 L181.249224,79.0811871 C181.143634,79.8017268 180.999224,80.2538301 180.817547,80.437497 C180.620342,80.605466 180.157609,80.6918052 179.429348,80.6918052 L175.244565,80.6918052 C174.531832,80.6918052 174.076863,80.6148848 173.879658,80.4610441 C173.637422,80.2475509 173.516304,79.9712655 173.516304,79.6337578 C173.516304,79.5113132 173.538043,79.2350279 173.584627,78.8064716 L177.359472,47.9676892 C177.451087,47.2314515 177.590839,46.780918 177.78028,46.6129491 C177.96972,46.4434104 178.437112,46.358641 179.179348,46.358641 L183.36413,46.358641 C184.062888,46.358641 184.510093,46.4355614 184.707298,46.5878323 C184.949534,46.8028953 185.070652,47.0791806 185.070652,47.4166883 C185.070652,47.5532612 185.04736,47.8295465 185.002329,48.2439746 L183.387422,61.5135204 Z" id="Fill-39" fill="#FFFFFF"></path>
                <path d="M206.037888,79.0358198 L199.464907,61.7428686 C199.252174,61.1918677 199.146584,60.815115 199.146584,60.61575 C199.146584,60.2625443 199.275466,60.0145154 199.53323,59.8700935 C199.790994,59.722532 200.238199,59.6487512 200.874845,59.6487512 L205.81118,59.6487512 C206.492857,59.6487512 206.91677,59.706834 207.084472,59.8245692 C207.250621,59.937595 207.463354,60.3174874 207.721118,60.9611067 L209.449379,65.3314386 C210.17764,67.1398518 210.745963,69.14763 211.155901,71.3547731 C211.853106,69.8226453 212.763043,68.1272579 213.885714,66.2717506 L217.273913,60.7538926 C217.381056,60.5843539 217.457143,60.4462112 217.502174,60.3394646 C217.699379,60.017655 217.881056,59.8245692 218.047205,59.753928 C218.214907,59.6864265 218.601553,59.6487512 219.208696,59.6487512 L224.098447,59.6487512 C224.719565,59.6487512 225.129503,59.6958453 225.326708,59.7868939 C225.690062,59.9705609 225.865528,60.2625443 225.85,60.6612743 C225.834472,60.9061635 225.652795,61.3048935 225.303416,61.8574642 L207.266149,91.2237713 C206.91677,91.7747722 206.671429,92.0903026 206.527019,92.1766418 C206.382609,92.2598414 205.985093,92.3022261 205.332919,92.3022261 L200.53323,92.3022261 C199.926087,92.3022261 199.525466,92.2567018 199.328261,92.1640834 C198.978882,91.9961144 198.804969,91.7041311 198.804969,91.2912728 C198.804969,91.0605118 198.978882,90.6617818 199.328261,90.0950829 L206.037888,79.0358198 Z" id="Fill-41" fill="#FFFFFF"></path>
                <path d="M238.309938,51.1656921 L236.148447,68.9185957 C236.073913,69.6532635 235.940373,70.103797 235.750932,70.2733358 C235.561491,70.4413047 235.095652,70.5276439 234.351863,70.5276439 L229.985404,70.5276439 C229.286646,70.5276439 228.839441,70.4507235 228.642236,70.2984526 C228.4,70.0833896 228.278882,69.8071042 228.278882,69.4695966 C228.278882,69.3173257 228.302174,69.0473195 228.347205,68.6627178 L230.508696,50.911384 C230.598758,50.1751464 230.738509,49.7246129 230.929503,49.5566439 C231.118944,49.3871052 231.577019,49.3023358 232.30528,49.3023358 L236.671739,49.3023358 C237.384472,49.3023358 237.831677,49.3776864 238.014907,49.5315271 C238.272671,49.7465901 238.401553,50.0213057 238.401553,50.3588133 C238.401553,50.4671297 238.370497,50.7371359 238.309938,51.1656921 M231.418634,71.8148824 C232.813043,71.8148824 233.941925,72.2748348 234.806832,73.1947394 C235.625155,74.0691197 236.035093,75.1632725 236.035093,76.4819071 C236.035093,77.8617641 235.584783,79.01086 234.682609,79.9307646 C233.780435,80.8506692 232.66087,81.3106215 231.327019,81.3106215 C229.946584,81.3106215 228.809938,80.8538088 227.915528,79.943323 C227.019565,79.0328372 226.57236,77.8774621 226.57236,76.4819071 C226.57236,75.0565259 227.042857,73.9215582 227.983851,73.078574 C228.923292,72.2355897 230.067702,71.8148824 231.418634,71.8148824" id="Fill-43" fill="#FFFFFF"></path>
            </g>
        </g>
    </g>
</svg>